{"glyphs":{"0":{"ha":757,"x_min":0,"x_max":0,"o":"m 378 225 b 368 233 371 225 368 228 l 368 878 b 378 886 368 883 371 886 b 388 878 385 886 388 883 l 388 233 b 378 225 388 228 385 225 z m 378 1125 b 36 851 156 1125 36 1039 l 36 260 b 378 -10 36 72 156 -10 b 721 260 600 -10 721 72 l 721 851 b 378 1125 721 1039 600 1125 z "},"1":{"ha":510,"x_min":0,"x_max":0,"o":"m 32 740 l 139 740 l 139 0 l 471 0 l 471 1111 l 222 1111 b 32 915 182 1011 119 939 z "},"2":{"ha":757,"x_min":0,"x_max":0,"o":"m 47 943 b 36 796 36 908 36 819 b 38 715 36 774 38 738 l 369 715 l 369 874 b 381 886 369 882 374 886 b 390 875 388 886 390 882 l 389 719 b 38 243 388 571 38 506 l 38 0 l 715 0 l 715 260 l 372 260 b 376 288 372 269 374 278 b 721 738 422 407 721 483 l 721 851 b 379 1125 721 1036 575 1125 b 47 943 197 1125 86 1069 z "},"3":{"ha":756,"x_min":0,"x_max":0,"o":"m 36 713 l 368 713 l 368 879 b 376 888 368 886 375 886 b 385 879 382 888 385 885 l 385 678 b 378 671 385 674 382 671 l 283 671 l 283 432 l 378 432 b 385 424 382 432 385 429 l 385 232 b 379 225 385 228 383 225 b 378 225 379 225 379 225 b 368 232 374 225 368 226 l 368 399 l 36 399 l 36 258 b 378 -10 36 65 172 -10 b 719 258 588 -10 721 68 l 718 397 b 638 558 717 492 693 532 b 718 704 694 588 718 639 l 719 853 b 378 1125 721 1046 586 1125 b 36 853 169 1125 36 1046 z "},"4":{"ha":828,"x_min":0,"x_max":0,"o":"m 369 368 l 419 560 l 419 368 z m 32 129 l 419 129 l 419 0 l 751 0 l 751 129 l 792 129 l 792 368 l 751 368 l 751 1111 l 415 1111 l 32 292 z "},"5":{"ha":757,"x_min":0,"x_max":0,"o":"m 36 353 l 36 260 b 378 -10 36 72 156 -10 b 721 260 600 -10 721 72 l 721 554 b 481 818 721 746 588 818 b 458 817 474 818 465 818 b 365 794 453 817 403 817 b 368 874 365 801 368 867 l 663 874 l 663 1111 l 71 1111 l 40 539 l 368 490 l 368 535 l 368 538 b 378 547 368 544 371 547 b 388 539 385 547 388 544 l 388 233 b 378 225 388 228 385 225 b 368 233 371 225 368 228 l 368 353 z "},"6":{"ha":763,"x_min":0,"x_max":0,"o":"m 368 478 b 378 486 368 483 371 486 b 385 478 382 486 385 483 l 385 232 b 378 225 385 228 382 225 b 368 232 371 225 368 228 z m 36 258 b 378 -10 36 74 156 -10 b 729 258 600 -10 731 74 l 728 478 b 460 718 726 635 614 718 b 368 694 438 718 403 715 l 368 879 b 378 888 368 885 371 888 b 385 879 382 888 385 885 l 385 739 l 719 739 l 719 853 b 378 1125 719 1038 599 1125 b 36 853 156 1125 36 1038 z "},"7":{"ha":749,"x_min":0,"x_max":0,"o":"m 32 872 l 383 872 l 69 0 l 403 0 l 717 872 l 717 1111 l 32 1111 z "},"8":{"ha":754,"x_min":0,"x_max":0,"o":"m 376 474 b 383 467 381 474 383 471 l 383 232 b 376 225 383 228 381 225 b 368 232 371 225 368 228 l 368 467 b 376 474 368 471 371 474 z m 369 881 b 376 888 369 885 372 888 b 383 881 381 888 383 885 l 383 663 b 376 656 383 658 381 656 b 368 663 371 656 368 658 z m 36 717 b 118 565 46 651 78 604 b 36 414 75 525 46 476 l 36 228 b 376 -10 36 63 171 -10 b 717 236 588 -10 717 64 l 717 414 b 636 565 707 476 676 525 b 718 717 679 604 708 651 l 717 883 b 376 1125 715 1040 586 1125 b 36 876 167 1125 36 1047 z "},"9":{"ha":763,"x_min":0,"x_max":0,"o":"m 378 879 b 388 888 378 885 381 888 b 394 879 392 888 394 885 l 394 633 b 388 625 394 628 392 625 b 378 633 381 625 378 628 z m 388 1125 b 36 853 165 1125 36 1038 l 36 633 b 303 393 36 478 150 393 b 394 417 325 393 360 396 l 394 232 b 388 225 394 228 392 225 b 378 232 381 225 378 228 l 378 372 l 44 372 l 44 258 b 388 -10 44 74 165 -10 b 729 258 606 -10 729 74 l 729 853 b 388 1125 729 1038 606 1125 z "}," ":{"ha":347,"x_min":0,"x_max":0,"o":""},"!":{"ha":410,"x_min":0,"x_max":0,"o":"m 40 1 l 372 1 l 372 303 l 40 303 z m 40 760 l 57 350 l 349 350 l 367 760 l 372 1111 l 39 1111 z "},"\"":{"ha":664,"x_min":0,"x_max":0,"o":"m 113 851 l 43 688 l 132 688 l 321 851 l 321 1111 l 36 1111 l 36 851 z m 342 851 l 418 851 l 350 688 l 438 688 l 628 851 l 628 1111 l 342 1111 z "},"#":{"ha":900,"x_min":0,"x_max":0,"o":"m 439 575 l 471 575 l 461 531 l 429 531 z m 117 293 l 56 0 l 318 0 l 379 293 l 413 293 l 351 0 l 613 0 l 674 293 l 761 293 l 813 531 l 725 531 l 733 575 l 817 575 l 868 813 l 785 813 l 847 1111 l 583 1111 l 521 813 l 489 813 l 551 1111 l 289 1111 l 226 813 l 138 813 l 88 575 l 176 575 l 167 532 l 83 532 l 32 293 z "},"$":{"ha":772,"x_min":0,"x_max":0,"o":"m 36 768 b 393 360 36 553 392 443 l 394 233 b 385 225 394 228 392 225 b 376 233 379 225 376 228 l 376 358 l 43 358 l 43 260 b 282 -3 43 104 126 19 l 282 -68 l 490 -68 l 490 -1 b 736 260 647 21 736 104 l 736 343 b 378 751 736 560 378 681 l 378 878 b 388 886 378 883 381 886 b 394 878 392 886 394 883 l 394 753 l 729 753 l 729 851 b 490 1115 729 997 639 1086 l 490 1185 l 282 1185 l 282 1118 b 36 851 122 1094 36 1008 z "},"%":{"ha":1057,"x_min":0,"x_max":0,"o":"m 801 300 b 824 322 801 313 813 322 b 849 300 840 322 849 315 l 849 132 b 824 110 849 117 840 110 b 801 132 813 110 801 119 z m 628 154 b 824 -11 628 44 701 -11 b 1021 154 946 -11 1021 47 l 1021 278 b 824 447 1021 388 946 447 b 628 278 701 447 628 388 z m 208 979 b 232 1000 208 990 219 1000 b 256 979 244 1000 256 990 l 256 810 b 232 789 256 799 244 789 b 208 810 219 789 208 799 z m 169 0 l 503 0 l 883 1113 l 550 1113 z m 36 833 b 232 664 36 724 110 664 b 429 833 353 664 429 724 l 429 956 b 232 1125 429 1065 353 1125 b 36 956 110 1125 36 1067 z "},"&":{"ha":906,"x_min":0,"x_max":0,"o":"m 389 272 l 389 213 b 381 200 389 204 386 200 b 368 213 372 200 368 204 l 368 300 z m 57 751 b 106 664 72 719 86 690 l 144 611 b 38 400 63 563 38 485 l 38 243 b 374 -10 38 43 176 -10 b 576 7 436 -10 511 -11 l 583 1 l 869 1 l 718 232 l 718 475 l 772 475 l 772 665 l 489 665 l 489 586 l 396 717 b 368 786 381 747 368 749 l 368 900 b 376 913 368 907 371 911 b 385 900 382 911 385 907 l 385 751 l 719 751 l 718 869 b 381 1125 715 1069 581 1125 b 36 869 181 1125 36 1075 b 57 751 36 826 42 794 z "},"’":{"ha":357,"x_min":0,"x_max":0,"o":"m 36 1111 l 36 851 l 113 851 l 43 689 l 131 689 l 321 851 l 321 1111 z "},"(":{"ha":392,"x_min":0,"x_max":0,"o":"m 36 76 b 315 -156 36 -87 146 -156 l 354 -156 l 354 31 l 351 31 b 331 50 338 31 331 38 l 331 1021 b 351 1039 331 1033 338 1039 l 354 1039 l 354 1229 l 315 1229 b 36 993 146 1229 36 1161 z "},")":{"ha":392,"x_min":0,"x_max":0,"o":"m 36 1229 l 36 1039 l 39 1039 b 58 1021 51 1039 58 1033 l 58 50 b 39 31 58 38 51 31 l 36 31 l 36 -156 l 74 -156 b 354 76 242 -156 354 -87 l 354 993 b 74 1229 354 1161 242 1229 z "},"*":{"ha":635,"x_min":0,"x_max":0,"o":"m 422 628 l 419 708 l 496 665 l 599 831 l 521 869 l 599 907 l 496 1072 l 419 1029 l 422 1110 l 213 1110 l 215 1029 l 139 1072 l 36 907 l 115 869 l 36 831 l 139 665 l 215 708 l 213 628 z "},"+":{"ha":708,"x_min":0,"x_max":0,"o":"m 36 692 l 36 421 l 206 421 l 206 271 l 503 271 l 503 421 l 672 421 l 672 692 l 503 692 l 503 839 l 206 839 l 206 692 z "},",":{"ha":363,"x_min":0,"x_max":0,"o":"m 36 -183 l 136 -183 l 328 0 l 328 260 l 43 260 l 43 0 l 85 0 z "},".":{"ha":357,"x_min":0,"x_max":0,"o":"m 36 1 l 321 1 l 321 261 l 36 261 z "},":":{"ha":357,"x_min":0,"x_max":0,"o":"m 36 449 l 36 189 l 321 189 l 321 449 z m 36 878 l 36 618 l 321 618 l 321 878 z "},";":{"ha":374,"x_min":0,"x_max":0,"o":"m 53 618 l 339 618 l 339 878 l 53 878 z m 36 0 l 136 0 l 335 189 l 335 449 l 49 449 l 49 189 l 92 189 z "},"<":{"ha":756,"x_min":0,"x_max":0,"o":"m 36 700 l 36 401 l 719 165 l 719 461 l 458 551 l 719 642 l 719 936 z "},"=":{"ha":726,"x_min":0,"x_max":0,"o":"m 690 546 l 690 817 l 36 817 l 36 546 z m 36 260 l 690 260 l 690 531 l 36 531 z "},">":{"ha":756,"x_min":0,"x_max":0,"o":"m 719 401 l 719 700 l 36 936 l 36 642 l 299 551 l 36 461 l 36 165 z "},"?":{"ha":763,"x_min":0,"x_max":0,"o":"m 226 301 l 226 0 l 558 0 l 558 301 z m 36 711 l 364 711 l 364 876 b 378 897 364 883 361 897 b 393 876 394 897 393 883 l 393 719 b 226 418 393 647 226 636 l 226 344 l 558 346 l 558 415 b 728 736 558 519 728 535 l 728 850 b 381 1124 728 1038 604 1124 b 36 850 158 1124 36 1038 z "},"A":{"ha":856,"x_min":0,"x_max":0,"o":"m 404 349 b 428 729 411 468 424 729 b 438 583 432 679 435 631 l 451 349 z m 374 0 l 383 110 l 465 110 l 475 0 l 824 0 l 629 1111 l 224 1111 l 32 0 z "},"B":{"ha":760,"x_min":0,"x_max":0,"o":"m 372 475 l 381 475 b 393 463 396 475 393 467 l 393 251 b 381 235 393 244 393 235 l 372 235 z m 382 865 b 390 856 388 865 390 863 l 390 674 b 381 665 390 668 388 665 l 374 665 l 374 865 z m 39 0 l 431 0 b 729 238 594 0 729 86 l 729 406 b 653 589 729 472 729 553 b 714 757 707 628 714 697 l 714 865 b 440 1111 714 1015 604 1111 l 39 1111 z "},"C":{"ha":757,"x_min":0,"x_max":0,"o":"m 36 260 b 378 -10 36 72 156 -10 b 721 260 600 -10 721 72 l 721 489 l 388 489 l 388 233 b 378 225 388 228 385 225 b 368 233 371 225 368 228 l 368 878 b 378 886 368 883 371 886 b 388 878 385 886 388 883 l 388 640 l 721 640 l 721 851 b 378 1125 721 1039 600 1125 b 36 851 156 1125 36 1039 z "},"D":{"ha":758,"x_min":0,"x_max":0,"o":"m 372 872 l 381 872 b 390 864 388 872 390 869 l 390 247 b 381 239 390 242 388 239 l 372 239 z m 39 1111 l 39 0 l 382 0 b 724 274 603 0 724 86 l 724 838 b 381 1111 724 1025 603 1111 z "},"E":{"ha":629,"x_min":0,"x_max":0,"o":"m 596 0 l 596 260 l 372 260 l 372 429 l 528 429 l 528 682 l 372 682 l 372 851 l 596 851 l 596 1111 l 39 1111 l 39 0 z "},"F":{"ha":629,"x_min":0,"x_max":0,"o":"m 39 0 l 372 0 l 372 436 l 528 436 l 528 675 l 372 675 l 372 851 l 596 851 l 596 1111 l 39 1111 z "},"G":{"ha":757,"x_min":0,"x_max":0,"o":"m 378 1125 b 36 851 156 1125 36 1039 l 36 260 b 275 -10 36 72 131 -10 b 422 31 340 -10 390 1 l 422 0 l 721 0 l 719 658 l 381 658 l 381 419 l 392 419 l 392 232 b 379 221 392 225 388 221 b 368 233 372 221 368 225 l 368 878 b 378 886 368 883 371 886 b 388 878 385 886 388 883 l 388 713 l 721 713 l 721 851 b 378 1125 721 1039 600 1125 z "},"H":{"ha":761,"x_min":0,"x_max":0,"o":"m 39 0 l 372 0 l 372 435 l 390 435 l 390 0 l 724 0 l 724 1111 l 390 1111 l 390 675 l 372 675 l 372 1111 l 39 1111 z "},"I":{"ha":410,"x_min":0,"x_max":0,"o":"m 39 0 l 372 0 l 372 1111 l 39 1111 z "},"J":{"ha":469,"x_min":0,"x_max":0,"o":"m 32 0 l 110 0 l 117 0 b 431 258 313 0 431 85 l 431 1113 l 97 1111 l 97 288 b 67 260 97 269 88 260 l 32 260 z "},"K":{"ha":876,"x_min":0,"x_max":0,"o":"m 39 0 l 372 0 l 372 203 l 388 231 l 511 1 l 843 1 l 550 553 l 835 1111 l 501 1111 l 372 835 l 372 1111 l 39 1111 z "},"L":{"ha":629,"x_min":0,"x_max":0,"o":"m 39 1111 l 39 0 l 596 0 l 596 260 l 372 260 l 372 1111 z "},"M":{"ha":1063,"x_min":0,"x_max":0,"o":"m 39 1111 l 39 0 l 354 0 l 354 468 l 492 139 l 568 139 l 708 468 l 708 0 l 1024 0 l 1015 1111 l 706 1111 l 525 689 l 351 1111 z "},"N":{"ha":803,"x_min":0,"x_max":0,"o":"m 39 1111 l 39 0 l 354 0 l 354 438 l 489 0 l 764 1 l 764 1113 l 457 1111 l 457 675 l 314 1111 z "},"O":{"ha":757,"x_min":0,"x_max":0,"o":"m 378 225 b 368 233 371 225 368 228 l 368 878 b 378 886 368 883 371 886 b 388 878 385 886 388 883 l 388 233 b 378 225 388 228 385 225 z m 378 1125 b 36 851 156 1125 36 1039 l 36 260 b 378 -10 36 72 156 -10 b 721 260 600 -10 721 72 l 721 851 b 378 1125 721 1039 600 1125 z "},"P":{"ha":760,"x_min":0,"x_max":0,"o":"m 372 872 l 382 872 b 390 865 388 872 390 869 l 390 544 b 382 538 390 540 388 538 l 372 538 z m 39 0 l 372 0 l 372 299 l 382 299 b 725 572 603 299 725 388 l 725 839 b 382 1111 725 1024 600 1111 l 39 1111 z "},"Q":{"ha":786,"x_min":0,"x_max":0,"o":"m 368 878 b 378 886 368 883 371 886 b 388 878 385 886 388 883 l 388 233 b 378 225 388 228 385 225 b 368 233 371 225 368 228 z m 378 1125 b 36 851 156 1125 36 1039 l 36 260 b 307 -7 36 93 132 17 l 754 -72 l 754 163 l 710 169 b 721 260 717 197 721 228 l 721 851 b 378 1125 721 1039 600 1125 z "},"R":{"ha":763,"x_min":0,"x_max":0,"o":"m 382 872 b 390 865 388 872 390 869 l 390 543 b 382 536 390 539 388 536 l 372 536 l 372 872 z m 372 0 l 372 299 l 378 299 l 431 0 l 728 0 l 660 388 b 725 572 703 433 725 496 l 725 839 b 382 1111 725 1024 600 1111 l 39 1111 l 39 0 z "},"S":{"ha":771,"x_min":0,"x_max":0,"o":"m 382 1125 b 36 868 185 1125 36 1071 l 36 722 b 254 472 36 596 86 525 b 393 399 368 438 393 428 l 393 381 b 393 379 393 379 393 379 l 393 372 b 393 371 393 371 393 371 l 393 360 b 393 358 393 360 393 360 l 393 253 b 385 240 393 247 390 243 b 378 253 381 242 378 246 l 378 399 l 44 399 l 46 243 b 385 -10 47 38 188 -10 b 733 243 582 -10 732 38 l 735 390 b 515 656 736 513 656 613 b 376 721 400 692 376 700 b 376 722 376 721 376 721 l 376 724 l 376 726 l 376 732 b 376 733 376 733 376 733 l 376 735 l 376 736 l 376 738 b 376 739 376 738 376 738 l 376 743 l 376 744 l 376 747 l 376 858 b 385 871 376 865 379 869 b 396 858 392 869 396 865 l 396 711 l 728 711 l 728 868 b 382 1125 728 1075 581 1125 z "},"T":{"ha":703,"x_min":0,"x_max":0,"o":"m 185 851 l 185 0 l 518 0 l 518 851 l 671 851 l 671 1111 l 32 1111 l 32 851 z "},"U":{"ha":757,"x_min":0,"x_max":0,"o":"m 36 258 b 378 -11 36 74 156 -11 b 721 258 600 -11 721 74 l 721 1111 l 388 1110 l 388 232 b 378 224 388 226 385 224 b 368 232 371 224 368 226 l 368 1110 l 36 1110 z "},"V":{"ha":858,"x_min":0,"x_max":0,"o":"m 486 1111 l 429 432 l 374 1111 l 32 1111 l 226 0 l 633 0 l 826 1111 z "},"W":{"ha":1167,"x_min":0,"x_max":0,"o":"m 32 1111 l 225 0 l 538 0 l 583 356 l 632 0 l 942 0 l 1133 1111 l 779 1111 l 742 583 l 686 1111 l 481 1111 l 425 582 l 388 1111 z "},"X":{"ha":800,"x_min":0,"x_max":0,"o":"m 365 0 l 399 240 l 433 0 l 767 0 l 603 556 l 765 1110 l 433 1110 l 399 872 l 365 1111 l 32 1111 l 197 556 l 32 0 z "},"Y":{"ha":876,"x_min":0,"x_max":0,"o":"m 269 400 l 269 0 l 603 0 l 603 400 l 843 1111 l 510 1111 l 439 768 l 365 1111 l 32 1111 z "},"Z":{"ha":721,"x_min":0,"x_max":0,"o":"m 32 1111 l 32 851 l 338 851 l 36 192 l 36 0 l 688 0 l 688 260 l 382 260 l 686 919 l 686 1111 z "},"[":{"ha":450,"x_min":0,"x_max":0,"o":"m 39 1250 l 39 -135 l 414 -135 l 414 100 l 301 100 l 301 1011 l 414 1011 l 414 1250 z "},"\\":{"ha":756,"x_min":0,"x_max":0,"o":"m 32 1111 l 389 0 l 724 0 l 365 1111 z "},"]":{"ha":450,"x_min":0,"x_max":0,"o":"m 414 -135 l 414 1250 l 39 1250 l 39 1011 l 153 1011 l 153 100 l 39 100 l 39 -135 z "},"_":{"ha":685,"x_min":0,"x_max":0,"o":"m 36 -233 l 494 -233 l 494 1 l 36 1 z "},"‘":{"ha":357,"x_min":0,"x_max":0,"o":"m 321 1111 l 36 1111 l 36 851 l 225 689 l 314 689 l 244 851 l 321 851 z "},"a":{"ha":685,"x_min":0,"x_max":0,"o":"m 336 319 b 349 333 336 329 336 333 l 354 333 l 353 167 b 336 186 332 168 336 176 z m 204 -4 b 353 61 286 -4 338 33 l 353 0 l 653 0 b 653 1 653 0 653 0 l 653 4 l 653 7 l 653 28 l 653 31 l 653 32 l 653 35 l 653 38 l 653 43 l 653 46 l 653 49 l 653 56 b 653 57 653 56 653 56 l 653 58 l 653 61 l 653 64 l 653 71 l 653 78 l 653 81 l 653 118 l 653 121 l 653 125 l 653 128 l 653 133 l 653 142 l 653 146 l 653 149 l 653 158 b 653 160 653 158 653 158 l 653 164 l 653 167 l 653 171 l 653 175 b 651 429 653 254 651 347 l 651 482 l 651 489 l 651 493 l 651 503 l 651 506 l 651 515 l 651 522 b 651 524 651 524 651 524 l 651 526 b 651 528 651 528 651 528 l 651 572 l 651 578 l 651 581 l 651 586 l 651 588 l 651 593 l 651 596 b 651 597 651 597 651 597 l 651 599 b 651 600 651 599 651 599 l 651 603 b 356 835 651 758 496 833 b 42 603 201 838 46 786 l 40 540 l 336 540 l 336 631 b 346 644 336 640 339 644 b 356 631 353 644 356 640 l 356 504 l 315 504 b 40 272 149 504 42 440 l 39 136 b 204 -4 38 51 111 -4 z "},"b":{"ha":685,"x_min":0,"x_max":0,"o":"m 336 622 b 344 628 338 626 340 628 b 351 614 344 628 351 629 l 351 163 l 349 158 b 342 154 346 156 343 154 b 336 156 339 154 338 154 z m 39 1111 l 39 0 l 336 0 l 336 36 b 483 -11 394 -1 451 -11 l 486 -11 b 488 -11 488 -11 488 -11 l 497 -11 l 499 -11 l 500 -11 b 501 -11 500 -11 500 -11 b 503 -11 503 -11 503 -11 l 504 -11 b 650 129 582 -11 650 33 l 650 682 b 485 833 650 783 594 833 b 336 757 403 833 356 788 l 336 1111 z "},"c":{"ha":678,"x_min":0,"x_max":0,"o":"m 36 218 b 326 -10 36 82 161 -10 l 353 -10 b 642 218 513 -10 642 82 l 642 364 l 347 364 l 347 190 b 339 176 347 183 344 178 b 331 190 333 178 331 183 l 331 631 b 339 644 331 639 333 643 b 347 631 344 643 347 638 l 347 463 l 642 463 l 642 603 b 329 842 642 778 500 842 b 36 603 150 842 36 735 z "},"d":{"ha":685,"x_min":0,"x_max":0,"o":"m 346 651 b 350 639 350 651 350 643 l 350 190 l 346 186 b 343 185 344 185 344 185 b 332 199 336 185 333 189 l 332 638 b 346 651 332 647 336 651 z m 200 -3 b 349 51 278 -3 332 24 l 349 0 l 647 0 l 647 1111 l 349 1111 l 349 818 b 256 833 317 828 286 833 b 38 610 115 833 38 738 l 36 167 b 200 -3 36 82 85 -3 z "},"e":{"ha":682,"x_min":0,"x_max":0,"o":"m 342 644 b 349 633 346 644 349 640 l 349 440 l 333 440 l 333 633 b 342 644 333 640 336 644 z m 336 -1 b 647 226 461 -1 647 49 l 647 308 l 349 308 l 349 199 b 339 183 349 182 343 183 b 340 183 340 183 340 183 b 333 199 340 183 333 182 l 333 332 l 647 332 l 647 601 b 338 833 647 772 461 833 b 36 601 213 833 36 768 l 36 225 b 336 -1 36 58 211 -1 z "},"f":{"ha":461,"x_min":0,"x_max":0,"o":"m 32 826 l 32 638 l 75 638 l 75 0 l 372 0 l 372 638 l 426 638 l 426 826 l 372 826 l 372 888 b 397 924 372 911 381 924 l 428 924 l 428 1113 l 351 1113 b 76 881 189 1113 81 1049 l 75 826 z "},"g":{"ha":690,"x_min":0,"x_max":0,"o":"m 353 650 b 358 646 357 650 358 649 l 358 644 l 358 640 b 358 639 358 640 358 640 b 358 638 358 639 358 639 b 358 636 358 636 358 636 l 358 210 l 353 206 l 351 206 b 350 206 350 206 350 206 b 339 219 344 206 340 210 l 339 636 b 353 650 339 646 343 650 z m 344 -246 b 654 0 522 -246 654 -185 l 654 828 l 357 828 l 357 817 b 263 833 325 826 294 833 b 44 608 124 833 44 736 l 43 167 b 208 11 43 82 118 11 b 357 71 286 11 340 43 l 357 -42 b 344 -56 357 -51 353 -56 b 331 -42 335 -56 331 -51 l 331 -18 l 36 -18 b 344 -246 36 -201 168 -246 z "},"h":{"ha":685,"x_min":0,"x_max":0,"o":"m 39 0 l 336 0 l 336 622 b 344 629 338 626 340 629 b 351 614 344 629 351 629 l 351 0 l 650 0 l 650 683 b 485 833 650 783 594 833 b 336 758 404 833 354 788 l 336 1111 l 39 1111 z "},"i":{"ha":378,"x_min":0,"x_max":0,"o":"m 39 851 l 339 851 l 339 1111 l 39 1111 z m 39 0 l 336 0 l 336 826 l 39 826 z "},"j":{"ha":376,"x_min":0,"x_max":0,"o":"m 4 -243 l 24 -243 b 338 -11 201 -243 338 -196 l 338 826 l 40 826 l 40 -39 b 26 -53 40 -50 31 -53 l 24 -53 l 4 -53 z m 39 1111 l 39 853 l 338 853 l 338 1111 z "},"k":{"ha":753,"x_min":0,"x_max":0,"o":"m 39 0 l 336 0 l 336 114 l 353 147 l 424 0 l 719 0 l 499 428 l 701 826 l 406 826 l 336 678 l 336 1111 l 39 1111 z "},"l":{"ha":375,"x_min":0,"x_max":0,"o":"m 39 0 l 336 0 l 336 1111 l 39 1111 z "},"m":{"ha":999,"x_min":0,"x_max":0,"o":"m 39 0 l 336 0 l 336 619 b 351 617 340 632 346 638 l 351 1 l 650 1 l 650 621 b 657 629 650 628 656 629 b 663 626 658 629 660 628 b 665 614 664 625 665 621 l 665 1 l 963 1 l 963 683 b 797 833 963 783 907 833 b 643 740 697 833 643 763 l 643 738 b 485 833 625 801 572 833 b 336 758 404 833 354 788 l 336 826 l 39 826 z "},"n":{"ha":685,"x_min":0,"x_max":0,"o":"m 39 0 l 336 0 l 336 622 b 344 629 338 626 340 629 b 351 614 344 629 351 629 l 351 1 l 650 1 l 650 683 b 485 833 650 783 594 833 b 336 758 404 833 354 788 l 336 828 l 39 828 z "},"o":{"ha":622,"x_min":0,"x_max":0,"o":"m 311 643 b 319 629 317 642 319 636 l 319 189 b 311 175 319 182 317 176 b 303 189 306 176 303 182 l 303 629 b 311 643 303 638 306 642 z m 310 -11 b 614 217 440 -11 614 50 l 614 601 b 308 833 614 769 440 833 b 8 601 176 833 8 765 l 8 217 b 310 -11 8 51 179 -11 z "},"p":{"ha":685,"x_min":0,"x_max":0,"o":"m 336 622 b 344 629 338 626 340 629 b 351 614 344 629 351 629 l 351 175 b 342 165 351 174 349 165 b 336 167 338 165 338 167 z m 39 826 l 39 -240 l 336 -240 l 336 47 b 504 -4 414 -4 490 -4 b 650 142 582 -4 650 43 l 650 683 b 485 833 650 783 594 833 b 336 758 404 833 354 788 l 336 826 z "},"q":{"ha":685,"x_min":0,"x_max":0,"o":"m 346 650 b 350 636 350 650 350 642 l 350 190 l 346 186 l 344 186 b 343 186 344 186 344 186 b 332 200 336 186 333 190 l 332 636 b 346 650 332 646 336 650 z m 200 -3 b 349 51 278 -3 332 24 l 349 -229 l 647 -228 l 647 831 l 349 831 l 349 817 b 256 833 319 826 285 833 b 38 608 115 833 38 736 l 36 132 b 200 -3 36 47 110 -3 z "},"r":{"ha":578,"x_min":0,"x_max":0,"o":"m 39 826 l 39 0 l 336 0 l 336 467 b 542 617 336 594 392 617 l 543 833 b 510 836 532 835 521 836 b 336 740 475 840 363 818 l 336 826 z "},"s":{"ha":690,"x_min":0,"x_max":0,"o":"m 51 568 b 372 289 61 307 372 332 l 372 186 b 360 175 372 179 368 175 b 346 186 350 175 346 179 l 346 296 l 51 296 l 51 213 b 360 -12 51 29 179 -12 b 668 206 539 -12 668 31 l 668 214 l 667 285 b 346 542 663 506 346 479 l 346 631 b 360 642 346 638 350 642 b 372 631 368 642 372 638 l 372 535 l 668 535 l 667 604 b 360 833 663 786 539 833 b 50 604 181 833 43 789 z "},"t":{"ha":524,"x_min":0,"x_max":0,"o":"m 32 826 l 32 636 l 83 636 l 83 222 b 363 -4 83 50 196 -4 b 490 1 403 -4 444 0 l 489 190 b 456 189 476 189 465 189 b 378 267 406 189 378 204 b 379 353 378 271 379 290 l 379 636 l 471 636 l 471 826 l 379 826 l 379 1036 l 83 1036 l 83 826 z "},"u":{"ha":685,"x_min":0,"x_max":0,"o":"m 200 -3 b 349 51 278 -3 332 24 l 349 0 l 647 0 l 647 826 l 349 826 l 350 190 l 346 186 l 344 186 b 343 186 344 186 344 186 b 332 200 336 186 333 190 l 332 826 l 38 826 l 36 132 b 200 -3 36 47 110 -3 z "},"v":{"ha":683,"x_min":0,"x_max":0,"o":"m 178 0 l 517 0 l 672 826 l 375 826 l 344 307 l 304 826 l 4 826 z "},"w":{"ha":1003,"x_min":0,"x_max":0,"o":"m 182 0 l 481 0 l 501 167 l 522 0 l 822 0 l 971 826 l 672 826 l 636 450 l 604 826 l 399 826 l 368 450 l 332 826 l 32 826 z "},"x":{"ha":706,"x_min":0,"x_max":0,"o":"m 32 826 l 204 414 l 32 0 l 331 0 l 351 167 l 375 0 l 672 0 l 501 414 l 672 826 l 375 826 l 351 674 l 331 826 z "},"y":{"ha":693,"x_min":0,"x_max":0,"o":"m 36 -18 b 344 -243 40 -200 164 -243 b 654 -11 522 -243 654 -197 l 654 828 l 358 828 l 358 214 b 351 208 353 208 351 208 b 350 210 350 208 350 208 b 349 210 350 210 350 210 b 342 224 344 210 342 214 l 339 826 l 44 826 l 43 158 b 208 15 43 74 115 15 b 357 75 286 15 340 47 l 357 -39 b 347 -53 357 -49 354 -53 l 344 -53 l 342 -53 b 332 -39 335 -53 332 -49 l 332 -18 z "},"z":{"ha":671,"x_min":0,"x_max":0,"o":"m 32 828 l 32 589 l 308 589 l 36 190 l 36 0 l 639 0 l 639 238 l 363 238 l 638 635 l 638 828 z "},"{":{"ha":464,"x_min":0,"x_max":0,"o":"m 75 49 b 288 -133 75 -90 142 -135 l 426 -132 l 426 50 l 390 50 b 381 51 386 50 382 50 b 369 69 374 56 369 61 l 372 426 b 331 569 372 486 354 532 b 372 713 354 607 372 651 l 372 1035 b 400 1063 372 1050 378 1063 l 428 1063 l 428 1250 l 303 1250 b 75 1018 156 1250 76 1196 l 74 747 b 36 665 74 703 71 665 l 36 472 b 74 413 68 472 74 440 l 74 397 l 74 396 l 74 394 l 74 393 l 74 390 b 74 389 74 390 74 390 l 74 386 z "},"|":{"ha":369,"x_min":0,"x_max":0,"o":"m 36 -325 l 333 -325 l 333 1110 l 36 1110 z "},"}":{"ha":464,"x_min":0,"x_max":0,"o":"m 63 1063 b 92 1035 85 1063 92 1050 l 92 713 b 133 569 92 651 107 607 b 92 426 106 532 92 483 l 93 69 b 85 51 93 61 90 56 b 74 50 81 50 78 50 l 38 50 l 38 -132 l 176 -133 b 389 49 321 -135 389 -90 l 390 386 l 390 401 b 390 403 390 401 390 401 b 390 404 390 404 390 404 l 390 413 b 428 472 390 440 396 472 l 428 665 b 390 747 389 665 390 703 l 388 1018 b 161 1250 386 1196 307 1250 l 36 1250 l 36 1063 z "},"¡":{"ha":410,"x_min":0,"x_max":0,"o":"m 40 526 l 372 526 l 372 828 l 40 828 z m 39 -278 l 372 -278 l 367 69 l 349 479 l 57 479 l 40 69 z "},"¢":{"ha":757,"x_min":0,"x_max":0,"o":"m 36 260 b 274 -1 36 104 119 21 l 274 -68 l 483 -68 l 483 -1 b 721 260 638 21 721 104 l 721 358 l 388 358 l 388 233 b 378 225 388 228 385 225 b 368 233 371 225 368 228 l 368 878 b 378 886 368 883 371 886 b 388 878 385 886 388 883 l 388 753 l 721 753 l 721 851 b 483 1117 721 1007 638 1090 l 483 1185 l 274 1185 l 274 1117 b 36 851 119 1090 36 1007 z "},"£":{"ha":797,"x_min":0,"x_max":0,"o":"m 39 607 l 39 418 l 75 418 l 75 4 l 761 4 l 761 276 l 410 276 l 410 418 l 460 418 l 460 607 l 410 607 l 410 878 b 419 886 410 883 413 886 b 426 878 424 886 426 883 l 426 753 l 761 753 l 761 851 b 419 1125 761 1039 642 1125 b 75 851 197 1125 75 1039 l 75 607 z "},"⁄":{"ha":1444,"x_min":0,"x_max":0,"o":""},"¥":{"ha":876,"x_min":0,"x_max":0,"o":"m 186 647 l 100 647 l 100 376 l 269 376 l 269 360 l 100 360 l 100 89 l 269 89 l 269 0 l 603 0 l 603 89 l 756 89 l 756 360 l 603 360 l 603 376 l 756 376 l 756 647 l 688 647 l 843 1111 l 510 1111 l 439 768 l 365 1111 l 32 1111 z "},"§":{"ha":690,"x_min":0,"x_max":0,"o":"m 332 608 b 346 629 332 625 336 629 b 358 608 351 629 358 625 l 358 531 b 346 510 358 513 351 510 b 332 531 336 510 332 513 z m 36 553 b 114 386 36 492 58 425 b 358 258 211 315 358 322 l 358 188 b 346 168 358 175 354 168 b 332 188 336 168 332 175 l 332 275 l 44 275 l 44 218 b 349 0 44 49 174 0 b 654 174 524 0 654 63 l 654 263 l 654 268 b 572 399 654 325 618 367 b 654 514 624 426 654 465 l 654 604 b 332 875 654 824 332 793 l 332 957 b 346 972 332 964 331 972 b 357 957 353 972 357 967 l 357 868 l 644 868 l 643 921 b 343 1140 639 1054 515 1140 b 39 921 132 1140 39 1054 l 39 897 b 131 739 39 819 76 772 b 36 578 65 700 36 644 z "},"¤":{"ha":501,"x_min":0,"x_max":0,"o":"m 224 504 b 242 519 224 514 229 519 b 258 504 253 519 258 514 b 242 489 258 494 258 489 b 224 504 229 489 224 494 z m 36 433 l 158 321 l 201 363 b 251 357 218 358 235 357 b 300 363 267 357 283 358 l 344 321 l 467 433 l 414 481 b 407 549 414 510 414 519 l 467 601 l 344 713 l 276 653 l 251 653 l 225 653 l 158 713 l 36 601 l 93 549 b 88 481 89 526 88 504 z "},"'":{"ha":374,"x_min":0,"x_max":0,"o":"m 36 663 l 136 663 l 338 851 l 338 1111 l 53 1111 l 53 851 l 94 851 z "},"“":{"ha":775,"x_min":0,"x_max":0,"o":"m 740 624 l 740 925 l 651 925 l 731 1114 l 628 1114 l 408 925 l 408 624 z m 36 925 l 36 624 l 367 624 l 367 925 l 278 925 l 358 1114 l 256 1114 z "},"‹":{"ha":564,"x_min":0,"x_max":0,"o":"m 268 260 l 529 260 l 297 542 l 529 826 l 268 826 l 36 542 z "},"›":{"ha":564,"x_min":0,"x_max":0,"o":"m 297 826 l 36 826 l 268 543 l 36 260 l 297 260 l 529 543 z "},"–":{"ha":539,"x_min":0,"x_max":0,"o":"m 32 457 l 503 457 l 503 647 l 32 647 z "},"†":{"ha":690,"x_min":0,"x_max":0,"o":"m 36 831 l 36 560 l 196 560 l 196 -325 l 494 -325 l 494 560 l 654 560 l 654 831 l 494 831 l 494 1110 l 196 1110 l 196 831 z "},"‡":{"ha":714,"x_min":0,"x_max":0,"o":"m 208 546 l 208 531 l 36 531 l 36 260 l 208 260 l 208 -325 l 506 -325 l 506 260 l 679 260 l 679 531 l 506 531 l 506 546 l 679 546 l 679 817 l 506 817 l 506 1110 l 208 1110 l 208 817 l 36 817 l 36 546 z "},"·":{"ha":332,"x_min":0,"x_max":0,"o":"m 36 488 b 167 368 36 422 93 368 b 297 488 239 368 297 422 b 167 607 297 553 239 607 b 36 488 93 607 36 553 z "},"¶":{"ha":738,"x_min":0,"x_max":0,"o":"m 308 319 l 308 -104 l 488 -104 l 488 963 l 535 963 l 535 -104 l 699 -104 l 699 1111 l 276 1111 b 36 853 72 1111 36 1025 l 36 581 b 276 319 36 408 72 319 z "},"‚":{"ha":357,"x_min":0,"x_max":0,"o":"m 36 163 l 113 163 l 43 0 l 131 0 l 321 163 l 321 422 l 36 422 z "},"„":{"ha":664,"x_min":0,"x_max":0,"o":"m 36 424 l 36 163 l 113 163 l 43 0 l 132 0 l 322 163 l 322 424 z m 418 163 l 349 0 l 438 0 l 628 163 l 628 424 l 342 424 l 342 163 z "},"”":{"ha":775,"x_min":0,"x_max":0,"o":"m 408 813 l 497 813 l 418 624 l 518 624 l 740 813 l 740 1114 l 408 1114 z m 36 1114 l 36 813 l 124 813 l 44 624 l 146 624 l 367 813 l 367 1114 z "},"…":{"ha":969,"x_min":0,"x_max":0,"o":"m 36 1 l 321 1 l 321 261 l 36 261 z m 342 1 l 626 1 l 626 261 l 342 261 z m 649 1 l 933 1 l 933 261 l 649 261 z "},"‰":{"ha":1481,"x_min":0,"x_max":0,"o":"m 813 315 b 836 336 813 326 821 336 b 858 315 849 336 858 326 l 858 146 b 836 125 858 135 849 125 b 813 146 821 125 813 135 z m 1225 315 b 1249 336 1225 326 1236 336 b 1274 315 1264 336 1274 326 l 1274 146 b 1249 125 1274 135 1264 125 b 1225 146 1236 125 1225 135 z m 639 169 b 836 0 639 60 714 0 b 1033 169 957 0 1033 60 l 1033 292 b 836 461 1033 401 957 461 b 639 292 714 461 639 403 z m 1051 169 b 1249 0 1051 60 1126 0 b 1446 169 1371 0 1446 60 l 1446 292 b 1249 461 1446 401 1371 461 b 1051 292 1126 461 1051 403 z m 208 994 b 232 1015 208 1006 219 1015 b 256 994 244 1015 256 1006 l 256 825 b 232 803 256 813 244 803 b 208 825 217 803 208 810 z m 503 15 l 883 1126 l 550 1126 l 169 15 z m 36 847 b 232 679 36 740 110 679 b 429 847 353 679 429 740 l 429 971 b 232 1140 429 1081 353 1140 b 36 971 110 1140 36 1081 z "},"´":{"ha":339,"x_min":0,"x_max":0,"o":"m 303 1036 l 94 1036 l 36 861 l 213 860 z "},"¯":{"ha":556,"x_min":0,"x_max":0,"o":"m 36 851 l 519 851 l 519 1042 l 36 1042 z "},"¨":{"ha":517,"x_min":0,"x_max":0,"o":"m 36 863 l 250 863 l 250 1057 l 36 1057 z m 268 863 l 482 863 l 482 1057 l 268 1057 z "},"¸":{"ha":313,"x_min":0,"x_max":0,"o":"m 36 -244 l 89 -244 b 276 -112 206 -244 276 -185 b 239 -46 276 -78 257 -57 b 199 -31 226 -39 214 -33 l 232 31 l 121 31 l 72 -61 l 104 -61 b 144 -85 119 -61 144 -64 b 107 -108 144 -94 139 -108 l 36 -108 z "},"—":{"ha":706,"x_min":0,"x_max":0,"o":"m 32 457 l 669 457 l 669 647 l 32 647 z "},"Æ":{"ha":1076,"x_min":0,"x_max":0,"o":"m 521 846 l 522 349 l 411 349 z m 349 0 l 369 110 l 488 110 l 488 0 l 1044 0 l 1044 260 l 821 260 l 821 436 l 976 436 l 976 675 l 821 675 l 821 851 l 1044 851 l 1044 1111 l 321 1111 l 32 0 z "},"Ł":{"ha":649,"x_min":0,"x_max":0,"o":"m 32 457 l 60 468 l 60 0 l 617 0 l 617 260 l 393 260 l 393 599 l 503 643 l 503 832 l 393 789 l 393 1111 l 60 1111 l 60 657 l 32 647 z "},"Ø":{"ha":818,"x_min":0,"x_max":0,"o":"m 419 451 l 419 233 b 410 222 419 226 417 222 b 403 233 406 222 403 226 l 403 418 z m 403 878 b 410 886 403 883 406 886 b 419 878 417 886 419 883 l 419 699 l 403 665 z m 174 0 l 190 32 b 410 -10 247 1 319 -10 b 754 260 632 -10 754 72 l 754 851 b 718 997 754 908 742 957 l 779 1111 l 644 1111 l 628 1081 b 410 1125 575 1110 503 1125 b 68 851 188 1125 68 1039 l 68 260 b 101 115 68 204 79 156 l 39 0 z "},"Œ":{"ha":976,"x_min":0,"x_max":0,"o":"m 378 225 b 368 233 371 225 368 228 l 368 878 b 378 886 368 883 371 886 b 388 878 385 886 388 883 l 388 233 b 378 225 388 228 385 225 z m 378 1125 b 36 851 156 1125 36 1039 l 36 260 b 378 -10 36 72 156 -10 b 513 0 438 -10 468 -8 l 946 0 l 946 239 l 721 239 l 721 436 l 878 436 l 878 675 l 721 675 l 721 872 l 946 872 l 946 1111 l 510 1111 b 378 1125 492 1115 443 1125 z "},"æ":{"ha":1001,"x_min":0,"x_max":0,"o":"m 336 319 b 349 333 336 329 336 333 l 354 333 l 353 167 b 336 186 332 168 336 176 z m 656 440 l 656 633 b 663 644 656 640 658 644 b 671 633 668 644 671 640 l 671 440 z m 39 136 b 204 -4 38 51 111 -4 b 353 61 286 -4 338 33 l 353 0 l 590 0 b 658 -1 614 0 636 -1 b 968 226 785 -1 968 49 l 968 308 l 671 308 l 671 199 b 668 185 671 192 669 186 b 663 183 667 183 664 183 b 660 185 661 183 661 183 b 656 199 657 186 656 192 l 656 332 l 968 332 l 968 601 b 660 833 968 772 783 833 b 506 803 614 833 557 824 b 356 835 460 824 407 835 b 42 603 201 836 46 786 l 40 540 l 336 540 l 336 631 b 346 644 336 640 339 644 b 356 631 353 644 356 640 l 356 504 l 315 504 b 40 272 149 504 42 440 z "},"ł":{"ha":428,"x_min":0,"x_max":0,"o":"m 51 444 l 51 0 l 349 0 l 349 610 l 396 636 l 396 826 l 349 800 l 349 1111 l 51 1111 l 51 635 l 32 625 l 32 435 z "},"ø":{"ha":688,"x_min":0,"x_max":0,"o":"m 333 308 l 349 333 l 349 190 b 342 176 349 183 346 178 b 333 190 336 178 333 183 z m 333 631 b 342 646 333 642 336 644 b 349 631 346 644 349 642 l 349 503 l 333 478 z m 36 0 l 140 0 l 160 29 b 338 -10 214 0 278 -10 b 643 218 472 -10 643 50 l 643 603 b 597 733 643 654 628 699 l 653 822 l 547 822 l 528 789 b 339 835 468 821 399 835 b 38 603 208 835 38 768 l 38 218 b 88 83 38 163 56 118 z "},"œ":{"ha":999,"x_min":0,"x_max":0,"o":"m 331 629 b 339 643 331 638 333 642 b 347 629 344 642 347 636 l 347 189 b 339 175 347 182 344 176 b 331 189 333 176 331 182 z m 649 633 b 657 644 649 640 651 644 b 665 633 663 644 665 640 l 665 440 l 649 440 z m 36 217 b 338 -11 36 51 207 -11 b 507 21 392 -11 456 -1 b 653 -1 556 3 607 -1 b 963 226 778 -1 963 49 l 963 308 l 665 308 l 665 199 b 656 183 665 182 657 183 b 649 199 656 183 649 182 l 649 332 l 963 332 l 963 601 b 654 833 963 772 778 833 b 497 801 606 833 549 824 b 336 833 446 824 390 833 b 36 601 204 833 36 765 z "},"ß":{"ha":754,"x_min":0,"x_max":0,"o":"m 36 0 l 368 0 l 369 878 b 376 889 369 885 372 889 b 388 878 383 889 388 885 l 388 661 b 381 654 388 657 385 656 l 381 472 b 388 465 385 471 388 469 l 388 228 b 381 221 388 224 385 221 l 381 217 l 379 -14 b 717 232 589 -12 717 64 l 717 413 b 636 563 717 478 676 524 b 718 714 679 603 718 649 l 717 882 b 376 1124 715 1039 586 1124 b 36 875 167 1124 36 1046 z "},"™":{"ha":497,"x_min":0,"x_max":0,"o":"m 82 1054 l 82 835 l 161 835 l 161 1054 l 208 1054 l 208 1111 l 36 1111 l 36 1054 z m 215 833 l 300 833 l 300 951 l 319 833 l 361 833 l 376 951 l 376 835 l 461 835 l 461 1111 l 375 1111 l 338 953 l 300 1111 l 211 1111 z "},"Ð":{"ha":789,"x_min":0,"x_max":0,"o":"m 411 872 b 421 864 418 872 421 869 l 421 247 b 411 239 421 242 418 239 l 403 239 l 403 433 l 411 433 l 411 675 l 403 675 l 403 872 z m 39 675 l 39 433 l 69 433 l 69 0 l 413 0 b 754 274 633 0 754 86 l 754 838 b 411 1111 754 1025 633 1111 l 69 1111 l 69 675 z "},"½":{"ha":1444,"x_min":0,"x_max":0,"o":""},"±":{"ha":708,"x_min":0,"x_max":0,"o":"m 36 0 l 672 0 l 672 235 l 36 235 z m 206 424 l 206 257 l 503 257 l 503 424 l 672 424 l 672 661 l 503 661 l 503 825 l 206 825 l 206 661 l 38 661 l 38 424 z "},"Þ":{"ha":685,"x_min":0,"x_max":0,"o":"m 336 622 b 344 628 338 626 340 628 b 351 614 344 628 351 629 l 351 163 l 349 158 b 342 154 346 156 343 154 b 336 156 339 154 338 154 z m 336 -325 l 336 36 b 483 -11 394 -1 451 -11 l 486 -11 b 488 -11 488 -11 488 -11 l 497 -11 l 499 -11 l 500 -11 b 501 -11 500 -11 500 -11 b 503 -11 503 -11 503 -11 l 504 -11 b 650 129 582 -11 650 33 l 650 682 b 485 833 650 783 594 833 b 336 757 403 833 356 788 l 336 1111 l 39 1110 l 39 -325 z "},"¼":{"ha":1444,"x_min":0,"x_max":0,"o":""},"÷":{"ha":708,"x_min":0,"x_max":0,"o":"m 519 111 l 519 413 l 189 413 l 189 111 z m 519 708 l 519 1008 l 189 1008 l 189 708 z m 36 694 l 36 424 l 672 424 l 672 694 z "},"¦":{"ha":369,"x_min":0,"x_max":0,"o":"m 333 -246 l 333 306 l 36 306 l 36 -246 z m 36 561 l 333 561 l 333 1118 l 36 1118 z "},"°":{"ha":424,"x_min":0,"x_max":0,"o":"m 196 964 b 213 979 196 974 201 979 b 229 964 224 979 229 974 b 213 949 229 954 224 949 b 196 964 201 949 196 954 z m 213 804 b 389 964 310 804 389 875 b 213 1125 389 1053 310 1125 b 36 964 115 1125 36 1053 b 213 804 36 875 115 804 z "},"þ":{"ha":685,"x_min":0,"x_max":0,"o":"m 336 622 b 344 628 338 626 340 628 b 351 614 344 628 351 629 l 351 163 l 349 158 b 342 154 346 156 343 154 b 336 156 339 154 338 154 z m 336 -325 l 336 36 b 483 -11 394 -1 451 -11 l 486 -11 b 488 -11 488 -11 488 -11 l 497 -11 l 499 -11 l 500 -11 b 501 -11 500 -11 500 -11 b 503 -11 503 -11 503 -11 l 504 -11 b 650 129 582 -11 650 33 l 650 682 b 485 833 650 783 594 833 b 336 757 403 833 356 788 l 336 1111 l 39 1110 l 39 -325 z "},"¾":{"ha":1444,"x_min":0,"x_max":0,"o":""},"®":{"ha":426,"x_min":0,"x_max":0,"o":"m 210 1018 l 213 1018 b 215 1015 214 1018 215 1017 l 215 963 b 213 960 215 961 214 960 l 210 960 z m 147 1061 l 147 868 l 210 868 l 210 917 l 214 917 l 225 868 l 281 868 l 267 931 b 278 960 274 938 278 947 l 278 1004 b 213 1061 278 1042 256 1061 z m 214 1081 b 343 964 285 1081 343 1029 b 214 847 343 899 285 847 b 86 964 143 847 86 899 b 214 1081 86 1029 143 1081 z m 36 964 b 214 801 36 875 117 801 b 392 964 311 801 392 875 b 214 1125 392 1053 311 1125 b 36 964 117 1125 36 1053 z "},"−":{"ha":1444,"x_min":0,"x_max":0,"o":""},"×":{"ha":819,"x_min":0,"x_max":0,"o":"m 219 292 l 410 461 l 599 292 l 785 461 l 596 628 l 785 796 l 599 965 l 410 796 l 219 965 l 36 796 l 222 628 l 36 461 z "},"©":{"ha":426,"x_min":0,"x_max":0,"o":"m 160 911 b 215 867 160 882 178 867 b 272 911 253 867 272 882 l 272 929 l 219 929 l 219 914 b 215 907 219 910 218 907 b 214 914 214 907 214 910 l 213 1024 b 214 1026 213 1025 213 1025 b 215 1026 215 1026 215 1026 b 219 1024 218 1026 219 1025 l 219 1003 l 272 1003 l 272 1021 b 215 1067 272 1051 253 1067 b 160 1021 178 1067 160 1051 z m 214 1081 b 343 964 285 1081 343 1029 b 214 847 343 899 285 847 b 86 964 143 847 86 899 b 214 1081 86 1029 143 1081 z m 214 801 b 392 964 311 801 392 875 b 214 1125 392 1053 311 1125 b 36 964 117 1125 36 1053 b 214 801 36 875 117 801 z "},"Á":{"ha":856,"x_min":0,"x_max":0,"o":"m 428 729 b 438 583 432 679 435 631 l 451 349 l 404 349 b 428 729 411 468 424 729 z m 32 0 l 374 0 l 383 110 l 465 110 l 475 0 l 824 0 l 629 1111 l 224 1111 z m 536 1139 l 594 1311 l 364 1311 l 322 1139 z "},"Â":{"ha":856,"x_min":0,"x_max":0,"o":"m 404 349 l 428 729 l 451 349 z m 394 1140 l 415 1200 l 438 1140 l 640 1140 l 557 1311 l 276 1311 l 193 1140 z m 374 0 l 383 110 l 465 110 l 475 0 l 824 0 l 629 1111 l 224 1111 l 32 0 z "},"Ä":{"ha":856,"x_min":0,"x_max":0,"o":"m 404 349 b 428 729 411 468 424 729 b 438 583 432 679 435 631 l 451 349 z m 32 0 l 374 0 l 383 110 l 465 110 l 475 0 l 824 0 l 629 1111 l 224 1111 z m 439 1139 l 638 1139 l 638 1319 l 439 1319 z m 221 1139 l 418 1139 l 418 1319 l 221 1319 z "},"À":{"ha":856,"x_min":0,"x_max":0,"o":"m 404 349 b 428 729 411 468 424 729 b 438 583 432 679 435 631 l 451 349 z m 374 0 l 383 110 l 465 110 l 475 0 l 824 0 l 629 1111 l 224 1111 l 32 0 z m 351 1140 l 565 1140 l 521 1322 l 290 1322 z "},"Å":{"ha":856,"x_min":0,"x_max":0,"o":"m 404 349 b 428 729 411 468 424 729 b 438 583 432 679 435 631 l 451 349 z m 374 0 l 383 110 l 465 110 l 475 0 l 824 0 l 629 1111 l 224 1111 l 32 0 z m 411 1268 b 428 1283 411 1278 417 1283 b 444 1268 439 1283 444 1278 b 428 1253 444 1258 439 1253 b 411 1268 417 1253 411 1258 z m 428 1132 b 579 1268 513 1132 579 1192 b 428 1406 579 1346 513 1406 b 278 1268 344 1406 278 1346 b 428 1132 278 1192 344 1132 z "},"Ã":{"ha":856,"x_min":0,"x_max":0,"o":"m 428 729 b 438 583 432 679 435 631 l 451 349 l 404 349 b 428 729 411 468 424 729 z m 374 0 l 383 110 l 465 110 l 475 0 l 824 0 l 629 1111 l 224 1111 l 32 0 z m 239 1138 b 283 1190 239 1176 254 1190 b 521 1139 338 1190 433 1136 b 704 1331 594 1140 704 1163 l 619 1331 l 619 1324 b 583 1281 619 1294 607 1281 b 346 1336 535 1281 439 1336 b 153 1138 292 1336 153 1310 z "},"Ç":{"ha":760,"x_min":0,"x_max":0,"o":"m 36 260 b 321 -7 36 89 136 4 l 293 -61 l 326 -61 b 365 -85 339 -61 365 -64 b 329 -108 365 -94 358 -108 l 257 -108 l 257 -244 l 311 -244 b 499 -112 426 -244 499 -185 b 460 -46 499 -78 478 -57 b 421 -31 447 -39 435 -33 l 433 -8 b 721 260 618 3 721 89 l 721 489 l 388 489 l 388 233 b 378 225 388 228 385 225 b 368 233 371 225 368 228 l 368 878 b 378 886 368 883 371 886 b 388 878 385 886 388 883 l 388 640 l 721 640 l 721 851 b 378 1125 721 1039 600 1125 b 36 851 156 1125 36 1039 z "},"É":{"ha":629,"x_min":0,"x_max":0,"o":"m 208 1139 l 422 1139 l 479 1311 l 250 1311 z m 39 1111 l 39 0 l 596 0 l 596 260 l 372 260 l 372 428 l 528 428 l 528 681 l 372 681 l 372 851 l 596 851 l 596 1111 z "},"Ê":{"ha":629,"x_min":0,"x_max":0,"o":"m 292 1140 l 314 1200 l 335 1140 l 536 1140 l 453 1311 l 174 1311 l 89 1140 z m 596 0 l 596 260 l 372 260 l 372 428 l 528 428 l 528 678 l 372 678 l 372 851 l 596 851 l 596 1111 l 39 1111 l 39 0 z "},"Ë":{"ha":629,"x_min":0,"x_max":0,"o":"m 104 1139 l 303 1139 l 303 1319 l 104 1319 z m 324 1319 l 324 1139 l 521 1139 l 521 1319 z m 596 0 l 596 260 l 372 260 l 372 428 l 528 428 l 528 678 l 372 678 l 372 851 l 596 851 l 596 1111 l 39 1111 l 39 0 z "},"È":{"ha":629,"x_min":0,"x_max":0,"o":"m 176 1322 l 236 1140 l 451 1140 l 406 1322 z m 596 0 l 596 260 l 372 260 l 372 428 l 528 428 l 528 678 l 372 678 l 372 851 l 596 851 l 596 1111 l 39 1111 l 39 0 z "},"Í":{"ha":410,"x_min":0,"x_max":0,"o":"m 140 1311 l 100 1139 l 314 1139 l 372 1311 z m 39 0 l 372 0 l 372 1111 l 39 1111 z "},"Î":{"ha":513,"x_min":0,"x_max":0,"o":"m 236 1140 l 257 1200 l 276 1140 l 481 1140 l 396 1311 l 117 1311 l 32 1140 z m 89 0 l 424 0 l 424 1111 l 89 1111 z "},"Ï":{"ha":482,"x_min":0,"x_max":0,"o":"m 450 1139 l 450 1319 l 251 1319 l 251 1139 z m 32 1139 l 231 1139 l 231 1319 l 32 1319 z m 408 0 l 408 1111 l 74 1111 l 74 0 z "},"Ì":{"ha":410,"x_min":0,"x_max":0,"o":"m 49 1322 l 108 1140 l 322 1140 l 278 1322 z m 39 0 l 372 0 l 372 1111 l 39 1111 z "},"Ñ":{"ha":803,"x_min":0,"x_max":0,"o":"m 354 0 l 354 438 l 489 0 l 764 1 l 764 1113 l 457 1111 l 457 675 l 314 1111 l 39 1111 l 39 0 z m 211 1138 b 256 1190 211 1176 228 1190 b 494 1139 310 1190 404 1136 b 678 1331 569 1140 678 1163 l 592 1331 l 592 1324 b 557 1281 592 1294 579 1281 b 318 1336 506 1281 411 1336 b 125 1138 264 1336 125 1310 z "},"Ó":{"ha":757,"x_min":0,"x_max":0,"o":"m 378 225 b 368 233 371 225 368 228 l 368 878 b 378 886 368 883 371 886 b 388 878 385 886 388 883 l 388 233 b 378 225 388 228 385 225 z m 36 260 b 378 -10 36 72 156 -10 b 721 260 600 -10 721 72 l 721 851 b 378 1125 721 1039 600 1125 b 36 851 156 1125 36 1039 z m 492 1139 l 549 1311 l 319 1311 l 276 1139 z "},"Ô":{"ha":757,"x_min":0,"x_max":0,"o":"m 368 878 b 378 886 368 883 371 886 b 388 878 385 886 388 883 l 388 233 b 378 225 388 228 385 225 b 368 233 371 225 368 228 z m 36 260 b 378 -10 36 72 156 -10 b 721 260 600 -10 721 72 l 721 851 b 378 1125 721 1039 600 1125 b 36 851 156 1125 36 1039 z m 363 1140 l 383 1200 l 404 1140 l 607 1140 l 522 1311 l 243 1311 l 160 1140 z "},"Ö":{"ha":757,"x_min":0,"x_max":0,"o":"m 368 878 b 378 886 368 883 371 886 b 388 878 385 886 388 883 l 388 233 b 378 225 388 228 385 225 b 368 233 371 225 368 228 z m 36 260 b 378 -10 36 72 156 -10 b 721 260 600 -10 721 72 l 721 851 b 378 1125 721 1039 600 1125 b 36 851 156 1125 36 1039 z m 393 1139 l 592 1139 l 592 1319 l 393 1319 z m 175 1319 l 175 1139 l 374 1139 l 374 1319 z "},"Ò":{"ha":757,"x_min":0,"x_max":0,"o":"m 378 225 b 368 233 371 225 368 228 l 368 878 b 378 886 368 883 371 886 b 388 878 385 886 388 883 l 388 233 b 378 225 388 228 385 225 z m 36 260 b 378 -10 36 72 156 -10 b 721 260 600 -10 721 72 l 721 851 b 378 1125 721 1039 600 1125 b 36 851 156 1125 36 1039 z m 306 1140 l 519 1140 l 475 1322 l 246 1322 z "},"Õ":{"ha":757,"x_min":0,"x_max":0,"o":"m 378 225 b 368 233 371 225 368 228 l 368 878 b 378 886 368 883 371 886 b 388 878 385 886 388 883 l 388 233 b 378 225 388 228 385 225 z m 36 260 b 378 -10 36 72 156 -10 b 721 260 600 -10 721 72 l 721 851 b 378 1125 721 1039 600 1125 b 36 851 156 1125 36 1039 z m 296 1336 b 103 1138 240 1336 103 1310 l 189 1138 b 232 1190 189 1176 204 1190 b 471 1139 286 1190 381 1136 b 654 1331 544 1140 654 1163 l 568 1331 l 568 1319 b 533 1281 568 1293 556 1281 b 489 1290 521 1281 507 1285 b 438 1307 472 1294 456 1301 l 433 1308 b 431 1310 432 1308 432 1308 b 296 1336 388 1322 342 1336 z "},"Š":{"ha":771,"x_min":0,"x_max":0,"o":"m 382 1125 b 36 868 185 1125 36 1071 l 36 722 b 254 472 36 596 86 525 b 393 399 368 438 393 428 l 393 381 b 393 379 393 379 393 379 l 393 372 b 393 371 393 371 393 371 l 393 360 b 393 358 393 360 393 360 l 393 253 b 385 240 393 247 390 243 b 378 253 381 242 378 246 l 378 399 l 44 399 l 46 243 b 385 -10 47 38 188 -10 b 733 243 582 -10 732 38 l 735 390 b 515 656 736 513 656 613 b 376 721 400 692 376 700 b 376 722 376 721 376 721 l 376 724 l 376 726 l 376 732 b 376 733 376 733 376 733 l 376 735 l 376 736 l 376 738 b 376 739 376 738 376 738 l 376 743 l 376 744 l 376 747 l 376 858 b 385 871 376 865 379 869 b 396 858 392 869 396 865 l 396 711 l 728 711 l 728 868 b 382 1125 728 1075 581 1125 z m 281 1140 l 490 1140 l 599 1313 l 424 1313 l 385 1269 l 346 1313 l 169 1313 z "},"Ú":{"ha":757,"x_min":0,"x_max":0,"o":"m 36 258 b 378 -11 36 74 156 -11 b 721 258 600 -11 721 74 l 721 1111 l 388 1110 l 388 232 b 378 224 388 226 385 224 b 368 232 371 224 368 226 l 368 1110 l 36 1110 z m 272 1139 l 486 1139 l 544 1311 l 314 1311 z "},"Û":{"ha":757,"x_min":0,"x_max":0,"o":"m 36 258 b 378 -11 36 74 156 -11 b 721 258 600 -11 721 74 l 721 1111 l 388 1110 l 388 232 b 378 224 388 226 385 224 b 368 232 371 224 368 226 l 368 1110 l 36 1110 z m 154 1140 l 357 1140 l 378 1200 l 399 1140 l 603 1140 l 518 1311 l 239 1311 z "},"Ü":{"ha":757,"x_min":0,"x_max":0,"o":"m 36 1110 l 36 258 b 378 -11 36 74 156 -11 b 721 258 600 -11 721 74 l 721 1111 l 388 1110 l 388 232 b 378 224 388 226 385 224 b 368 232 371 224 368 226 l 368 1110 z m 389 1139 l 588 1139 l 588 1319 l 389 1319 z m 169 1139 l 368 1139 l 368 1319 l 169 1319 z "},"Ù":{"ha":757,"x_min":0,"x_max":0,"o":"m 36 1110 l 36 258 b 378 -11 36 74 156 -11 b 721 258 600 -11 721 74 l 721 1111 l 388 1110 l 388 232 b 378 224 388 226 385 224 b 368 232 371 224 368 226 l 368 1110 z m 301 1140 l 515 1140 l 471 1322 l 240 1322 z "},"Ý":{"ha":876,"x_min":0,"x_max":0,"o":"m 332 1139 l 547 1139 l 604 1311 l 374 1311 z m 32 1111 l 269 400 l 269 0 l 603 0 l 603 400 l 843 1111 l 510 1111 l 439 768 l 365 1111 z "},"Ÿ":{"ha":876,"x_min":0,"x_max":0,"o":"m 449 1139 l 647 1139 l 647 1319 l 449 1319 z m 428 1139 l 428 1319 l 229 1319 l 229 1139 z m 269 400 l 269 0 l 603 0 l 603 400 l 843 1111 l 510 1111 l 439 768 l 365 1111 l 32 1111 z "},"Ž":{"ha":721,"x_min":0,"x_max":0,"o":"m 165 1313 l 275 1140 l 485 1140 l 594 1313 l 419 1313 l 379 1269 l 342 1313 z m 32 1111 l 32 851 l 338 851 l 36 192 l 36 0 l 688 0 l 688 260 l 382 260 l 686 919 l 686 1111 z "},"á":{"ha":685,"x_min":0,"x_max":0,"o":"m 336 319 b 349 333 336 329 336 333 l 354 333 l 353 167 b 336 186 332 168 336 176 z m 204 -4 b 353 61 286 -4 338 33 l 353 0 l 653 0 b 653 1 653 0 653 0 l 653 4 l 653 7 l 653 28 l 653 31 l 653 32 l 653 35 l 653 38 l 653 43 l 653 46 l 653 49 l 653 56 b 653 57 653 56 653 56 l 653 58 l 653 61 l 653 64 l 653 71 l 653 78 l 653 81 l 653 118 l 653 121 l 653 125 l 653 128 l 653 133 l 653 142 l 653 146 l 653 149 l 653 158 b 653 160 653 158 653 158 l 653 164 l 653 167 l 653 171 l 653 175 b 651 429 653 254 651 347 l 651 482 l 651 489 l 651 493 l 651 503 l 651 506 l 651 515 l 651 522 b 651 524 651 524 651 524 l 651 526 b 651 528 651 528 651 528 l 651 572 l 651 578 l 651 581 l 651 586 l 651 588 l 651 593 l 651 596 b 651 597 651 597 651 597 l 651 599 b 651 600 651 599 651 599 l 651 603 b 356 835 651 758 496 833 b 42 603 201 838 46 786 l 40 540 l 336 540 l 336 631 b 346 644 336 640 339 644 b 356 631 353 644 356 640 l 356 504 l 315 504 b 40 272 149 504 42 440 l 39 136 b 204 -4 38 51 111 -4 z m 390 860 l 478 1036 l 271 1036 l 211 861 z "},"â":{"ha":685,"x_min":0,"x_max":0,"o":"m 336 319 b 349 333 336 329 336 333 l 354 333 l 353 167 b 336 186 332 168 336 176 z m 39 136 b 204 -4 38 51 111 -4 b 353 61 286 -4 338 33 l 353 0 l 653 0 b 653 1 653 0 653 0 l 653 4 l 653 7 l 653 28 l 653 31 l 653 32 l 653 35 l 653 38 l 653 43 l 653 46 l 653 49 l 653 56 b 653 57 653 56 653 56 l 653 58 l 653 61 l 653 64 l 653 71 l 653 78 l 653 81 l 653 118 l 653 121 l 653 125 l 653 128 l 653 133 l 653 142 l 653 146 l 653 149 l 653 158 b 653 160 653 158 653 158 l 653 164 l 653 167 l 653 171 l 653 175 b 651 429 653 254 651 347 l 651 482 l 651 489 l 651 493 l 651 503 l 651 506 l 651 515 l 651 522 b 651 524 651 524 651 524 l 651 526 b 651 528 651 528 651 528 l 651 572 l 651 578 l 651 581 l 651 586 l 651 588 l 651 593 l 651 596 b 651 597 651 597 651 597 l 651 599 b 651 600 651 599 651 599 l 651 603 b 356 835 651 758 496 833 b 42 603 201 838 46 786 l 40 540 l 336 540 l 336 631 b 346 644 336 640 339 644 b 356 631 353 644 356 640 l 356 504 l 315 504 b 40 272 149 504 42 440 z m 306 863 l 346 906 l 383 863 l 560 863 l 451 1036 l 240 1036 l 131 863 z "},"ä":{"ha":685,"x_min":0,"x_max":0,"o":"m 336 319 b 349 333 336 329 336 333 l 354 333 l 353 167 b 336 186 332 168 336 176 z m 39 136 b 204 -4 38 51 111 -4 b 353 61 286 -4 338 33 l 353 0 l 653 0 b 653 1 653 0 653 0 l 653 4 l 653 7 l 653 28 l 653 31 l 653 32 l 653 35 l 653 38 l 653 43 l 653 46 l 653 49 l 653 56 b 653 57 653 56 653 56 l 653 58 l 653 61 l 653 64 l 653 71 l 653 78 l 653 81 l 653 118 l 653 121 l 653 125 l 653 128 l 653 133 l 653 142 l 653 146 l 653 149 l 653 158 b 653 160 653 158 653 158 l 653 164 l 653 167 l 653 171 l 653 175 b 651 429 653 254 651 347 l 651 482 l 651 489 l 651 493 l 651 503 l 651 506 l 651 515 l 651 522 b 651 524 651 524 651 524 l 651 526 b 651 528 651 528 651 528 l 651 572 l 651 578 l 651 581 l 651 586 l 651 588 l 651 593 l 651 596 b 651 597 651 597 651 597 l 651 599 b 651 600 651 599 651 599 l 651 603 b 356 835 651 758 496 833 b 42 603 201 838 46 786 l 40 540 l 336 540 l 336 631 b 346 644 336 640 339 644 b 356 631 353 644 356 640 l 356 504 l 315 504 b 40 272 149 504 42 440 z m 568 863 l 568 1057 l 354 1057 l 354 863 z m 122 863 l 336 863 l 336 1057 l 122 1057 z "},"à":{"ha":685,"x_min":0,"x_max":0,"o":"m 336 319 b 349 333 336 329 336 333 l 354 333 l 353 167 b 336 186 332 168 336 176 z m 204 -4 b 353 61 286 -4 338 33 l 353 0 l 653 0 b 653 1 653 0 653 0 l 653 4 l 653 7 l 653 28 l 653 31 l 653 32 l 653 35 l 653 38 l 653 43 l 653 46 l 653 49 l 653 56 b 653 57 653 56 653 56 l 653 58 l 653 61 l 653 64 l 653 71 l 653 78 l 653 81 l 653 118 l 653 121 l 653 125 l 653 128 l 653 133 l 653 142 l 653 146 l 653 149 l 653 158 b 653 160 653 158 653 158 l 653 164 l 653 167 l 653 171 l 653 175 b 651 429 653 254 651 347 l 651 482 l 651 489 l 651 493 l 651 503 l 651 506 l 651 515 l 651 522 b 651 524 651 524 651 524 l 651 526 b 651 528 651 528 651 528 l 651 572 l 651 578 l 651 581 l 651 586 l 651 588 l 651 593 l 651 596 b 651 597 651 597 651 597 l 651 599 b 651 600 651 599 651 599 l 651 603 b 356 835 651 758 496 833 b 42 603 201 838 46 786 l 40 540 l 336 540 l 336 631 b 346 644 336 640 339 644 b 356 631 353 644 356 640 l 356 504 l 315 504 b 40 272 149 504 42 440 l 39 136 b 204 -4 38 51 111 -4 z m 301 867 l 478 867 l 421 1043 l 211 1043 z "},"å":{"ha":685,"x_min":0,"x_max":0,"o":"m 336 319 b 349 333 336 329 336 333 l 354 333 l 353 167 b 336 186 332 168 336 176 z m 204 -4 b 353 61 286 -4 338 33 l 353 0 l 653 0 b 653 1 653 0 653 0 l 653 4 l 653 7 l 653 28 l 653 31 l 653 32 l 653 35 l 653 38 l 653 43 l 653 46 l 653 49 l 653 56 b 653 57 653 56 653 56 l 653 58 l 653 61 l 653 64 l 653 71 l 653 78 l 653 81 l 653 118 l 653 121 l 653 125 l 653 128 l 653 133 l 653 142 l 653 146 l 653 149 l 653 158 b 653 160 653 158 653 158 l 653 164 l 653 167 l 653 171 l 653 175 b 651 429 653 254 651 347 l 651 482 l 651 489 l 651 493 l 651 503 l 651 506 l 651 515 l 651 522 b 651 524 651 524 651 524 l 651 526 b 651 528 651 528 651 528 l 651 572 l 651 578 l 651 581 l 651 586 l 651 588 l 651 593 l 651 596 b 651 597 651 597 651 597 l 651 599 b 651 600 651 599 651 599 l 651 603 b 356 835 651 758 496 833 b 42 603 201 838 46 786 l 40 540 l 336 540 l 336 631 b 346 644 336 640 339 644 b 356 631 353 644 356 640 l 356 504 l 315 504 b 40 272 149 504 42 440 l 39 136 b 204 -4 38 51 111 -4 z m 329 985 b 346 1000 329 994 335 1000 b 363 985 357 1000 363 994 b 346 969 363 975 357 969 b 329 985 335 969 329 975 z m 346 849 b 494 985 429 849 494 908 b 346 1121 494 1061 429 1121 b 196 985 263 1121 196 1061 b 346 849 196 908 263 849 z "},"ã":{"ha":685,"x_min":0,"x_max":0,"o":"m 336 319 b 349 333 336 329 336 333 l 354 333 l 353 167 b 336 186 332 168 336 176 z m 39 136 b 204 -4 38 51 111 -4 b 353 61 286 -4 338 33 l 353 0 l 653 0 b 653 1 653 0 653 0 l 653 4 l 653 7 l 653 28 l 653 31 l 653 32 l 653 35 l 653 38 l 653 43 l 653 46 l 653 49 l 653 56 b 653 57 653 56 653 56 l 653 58 l 653 61 l 653 64 l 653 71 l 653 78 l 653 81 l 653 118 l 653 121 l 653 125 l 653 128 l 653 133 l 653 142 l 653 146 l 653 149 l 653 158 b 653 160 653 158 653 158 l 653 164 l 653 167 l 653 171 l 653 175 b 651 429 653 254 651 347 l 651 482 l 651 489 l 651 493 l 651 503 l 651 506 l 651 515 l 651 522 b 651 524 651 524 651 524 l 651 526 b 651 528 651 528 651 528 l 651 572 l 651 578 l 651 581 l 651 586 l 651 588 l 651 593 l 651 596 b 651 597 651 597 651 597 l 651 599 b 651 600 651 599 651 599 l 651 603 b 356 835 651 758 496 833 b 42 603 201 838 46 786 l 40 540 l 336 540 l 336 631 b 346 644 336 640 339 644 b 356 631 353 644 356 640 l 356 504 l 315 504 b 40 272 149 504 42 440 z m 156 860 b 199 913 156 899 172 913 b 438 861 254 913 346 858 b 622 1053 513 863 622 885 l 536 1053 b 500 1003 536 1015 522 1003 b 263 1058 451 1003 357 1058 b 69 860 207 1058 69 1032 z "},"ç":{"ha":678,"x_min":0,"x_max":0,"o":"m 36 232 b 297 1 36 103 147 13 l 261 -61 l 293 -61 b 333 -85 310 -61 333 -64 b 297 -108 333 -94 329 -108 l 226 -108 l 226 -244 l 281 -244 b 468 -112 396 -244 468 -185 b 428 -46 468 -78 449 -57 b 389 -31 417 -39 404 -33 l 410 4 b 642 232 542 24 642 113 l 642 378 l 347 378 l 347 204 b 339 190 347 197 344 192 b 331 204 333 192 331 197 l 331 644 b 339 658 331 653 333 657 b 347 644 344 657 347 651 l 347 476 l 642 476 l 642 617 b 329 856 642 792 500 856 b 36 617 150 856 36 749 z "},"é":{"ha":682,"x_min":0,"x_max":0,"o":"m 342 644 b 349 633 346 644 349 640 l 349 440 l 333 440 l 333 633 b 342 644 333 640 336 644 z m 36 225 b 336 -1 36 58 211 -1 b 647 226 461 -1 647 49 l 647 308 l 349 308 l 349 199 b 339 183 349 182 343 183 b 340 183 340 183 340 183 b 333 199 340 183 333 182 l 333 332 l 647 332 l 647 601 b 338 833 647 772 461 833 b 36 601 213 833 36 768 z m 215 861 l 394 860 l 483 1036 l 275 1036 z "},"ê":{"ha":682,"x_min":0,"x_max":0,"o":"m 342 644 b 349 633 346 644 349 640 l 349 440 l 333 440 l 333 633 b 342 644 333 640 336 644 z m 36 225 b 336 -1 36 58 211 -1 b 647 226 461 -1 647 49 l 647 308 l 349 308 l 349 199 b 339 183 349 182 343 183 b 340 183 340 183 340 183 b 333 199 340 183 333 182 l 333 332 l 647 332 l 647 601 b 338 833 647 772 461 833 b 36 601 213 833 36 768 z m 311 863 l 350 906 l 389 863 l 564 863 l 456 1036 l 244 1036 l 135 863 z "},"ë":{"ha":682,"x_min":0,"x_max":0,"o":"m 342 644 b 349 633 346 644 349 640 l 349 440 l 333 440 l 333 633 b 342 644 333 640 336 644 z m 36 225 b 336 -1 36 58 211 -1 b 647 226 461 -1 647 49 l 647 308 l 349 308 l 349 199 b 339 183 349 182 343 183 b 340 183 340 183 340 183 b 333 199 340 183 333 182 l 333 332 l 647 332 l 647 601 b 338 833 647 772 461 833 b 36 601 213 833 36 768 z m 563 863 l 563 1057 l 349 1057 l 349 863 z m 331 863 l 331 1057 l 117 1057 l 117 863 z "},"è":{"ha":682,"x_min":0,"x_max":0,"o":"m 342 644 b 349 633 346 644 349 640 l 349 440 l 333 440 l 333 633 b 342 644 333 640 336 644 z m 36 225 b 336 -1 36 58 211 -1 b 647 226 461 -1 647 49 l 647 308 l 349 308 l 349 199 b 339 183 349 182 343 183 b 340 183 340 183 340 183 b 333 199 340 183 333 182 l 333 332 l 647 332 l 647 601 b 338 833 647 772 461 833 b 36 601 213 833 36 768 z m 297 867 l 474 867 l 415 1043 l 207 1043 z "},"í":{"ha":375,"x_min":0,"x_max":0,"o":"m 106 1036 l 46 861 l 224 860 l 314 1036 z m 39 0 l 336 0 l 336 826 l 39 826 z "},"î":{"ha":494,"x_min":0,"x_max":0,"o":"m 32 863 l 208 863 l 247 906 l 286 863 l 461 863 l 351 1036 l 143 1036 z m 106 0 l 404 0 l 404 826 l 106 826 z "},"ï":{"ha":511,"x_min":0,"x_max":0,"o":"m 32 1057 l 32 863 l 246 863 l 246 1057 z m 265 1057 l 265 863 l 479 863 l 479 1057 z m 113 826 l 113 0 l 410 0 l 410 826 z "},"ì":{"ha":381,"x_min":0,"x_max":0,"o":"m 32 1043 l 122 867 l 300 867 l 240 1043 z m 44 0 l 343 0 l 343 826 l 44 826 z "},"ñ":{"ha":685,"x_min":0,"x_max":0,"o":"m 336 0 l 336 622 b 344 629 338 626 340 629 b 351 614 344 629 351 629 l 351 1 l 650 1 l 650 683 b 485 833 650 783 594 833 b 336 758 404 833 354 788 l 336 828 l 39 828 l 39 0 z m 158 860 b 200 913 158 899 174 913 b 439 861 254 913 349 858 b 624 1053 515 863 624 885 l 538 1053 b 501 1003 538 1015 524 1003 b 265 1058 453 1003 357 1058 b 71 860 208 1058 71 1032 z "},"ó":{"ha":678,"x_min":0,"x_max":0,"o":"m 331 629 b 339 643 331 638 333 642 b 347 629 344 642 347 636 l 347 189 b 339 175 347 182 344 176 b 331 189 333 176 331 182 z m 36 217 b 338 -11 36 51 207 -11 b 642 217 468 -11 642 50 l 642 601 b 336 833 642 769 468 833 b 36 601 204 833 36 765 z m 392 860 l 482 1036 l 274 1036 l 214 861 z "},"ô":{"ha":678,"x_min":0,"x_max":0,"o":"m 331 629 b 339 643 331 638 333 642 b 347 629 344 642 347 636 l 347 189 b 339 175 347 182 344 176 b 331 189 333 176 331 182 z m 36 217 b 338 -11 36 51 207 -11 b 642 217 468 -11 642 50 l 642 601 b 336 833 642 769 468 833 b 36 601 204 833 36 765 z m 300 863 l 339 906 l 378 863 l 553 863 l 443 1036 l 235 1036 l 124 863 z "},"ö":{"ha":678,"x_min":0,"x_max":0,"o":"m 331 629 b 339 643 331 638 333 642 b 347 629 344 642 347 636 l 347 189 b 339 175 347 182 344 176 b 331 189 333 176 331 182 z m 36 217 b 338 -11 36 51 207 -11 b 642 217 468 -11 642 50 l 642 601 b 336 833 642 769 468 833 b 36 601 204 833 36 765 z m 107 1057 l 107 863 l 321 863 l 321 1057 z m 338 863 l 551 863 l 551 1057 l 338 1057 z "},"ò":{"ha":678,"x_min":0,"x_max":0,"o":"m 339 643 b 347 629 344 642 347 636 l 347 189 b 339 175 347 182 344 176 b 331 189 333 176 331 182 l 331 629 b 339 643 331 638 333 642 z m 36 217 b 338 -11 36 51 207 -11 b 642 217 468 -11 642 50 l 642 601 b 336 833 642 769 468 833 b 36 601 204 833 36 765 z m 206 1043 l 296 867 l 472 867 l 413 1043 z "},"õ":{"ha":678,"x_min":0,"x_max":0,"o":"m 331 629 b 339 643 331 638 333 642 b 347 629 344 642 347 636 l 347 189 b 339 175 347 182 344 176 b 331 189 333 176 331 182 z m 36 217 b 338 -11 36 51 207 -11 b 642 217 468 -11 642 50 l 642 601 b 336 833 642 769 468 833 b 36 601 204 833 36 765 z m 158 860 b 201 913 158 899 174 913 b 440 861 256 913 350 858 b 624 1053 518 863 624 885 l 540 1053 b 503 1003 540 1015 525 1003 b 458 1013 490 1003 476 1007 b 407 1029 442 1017 425 1024 l 403 1031 b 400 1032 401 1031 401 1031 b 265 1058 357 1044 311 1058 b 72 860 210 1058 72 1032 z "},"š":{"ha":690,"x_min":0,"x_max":0,"o":"m 51 568 b 372 289 61 307 372 332 l 372 186 b 360 175 372 179 368 175 b 346 186 350 175 346 179 l 346 296 l 51 296 l 51 213 b 360 -12 51 29 179 -12 b 668 206 539 -12 668 31 l 668 214 l 667 285 b 346 542 663 506 346 479 l 346 631 b 360 642 346 638 350 642 b 372 631 368 642 372 638 l 372 535 l 668 535 l 667 604 b 360 833 663 786 539 833 b 50 604 181 833 43 789 z m 264 863 l 472 863 l 582 1035 l 407 1035 l 367 992 l 329 1035 l 153 1035 z "},"ú":{"ha":682,"x_min":0,"x_max":0,"o":"m 200 -3 b 349 51 278 -3 332 24 l 349 0 l 647 0 l 647 826 l 349 826 l 350 190 l 346 186 l 344 186 b 343 186 344 186 344 186 b 332 200 336 186 333 190 l 332 826 l 38 826 l 36 132 b 200 -3 36 47 110 -3 z m 385 860 l 475 1036 l 268 1036 l 208 861 z "},"û":{"ha":682,"x_min":0,"x_max":0,"o":"m 200 -3 b 349 51 278 -3 332 24 l 349 0 l 647 0 l 647 826 l 349 826 l 350 190 l 346 186 l 344 186 b 343 186 344 186 344 186 b 332 200 336 186 333 190 l 332 826 l 38 826 l 36 132 b 200 -3 36 47 110 -3 z m 128 863 l 303 863 l 342 906 l 381 863 l 557 863 l 446 1036 l 236 1036 z "},"ü":{"ha":682,"x_min":0,"x_max":0,"o":"m 200 -3 b 349 51 278 -3 332 24 l 349 0 l 647 0 l 647 826 l 349 826 l 350 190 l 346 186 l 344 186 b 343 186 344 186 344 186 b 332 200 336 186 333 190 l 332 826 l 38 826 l 36 132 b 200 -3 36 47 110 -3 z m 121 863 l 335 863 l 335 1057 l 121 1057 z m 353 1057 l 353 863 l 567 863 l 567 1057 z "},"ù":{"ha":682,"x_min":0,"x_max":0,"o":"m 200 -3 b 349 51 278 -3 332 24 l 349 0 l 647 0 l 647 826 l 349 826 l 350 190 l 346 186 l 344 186 b 343 186 344 186 344 186 b 332 200 336 186 333 190 l 332 826 l 38 826 l 36 132 b 200 -3 36 47 110 -3 z m 297 867 l 475 867 l 415 1043 l 208 1043 z "},"ý":{"ha":693,"x_min":0,"x_max":0,"o":"m 36 -18 b 344 -243 40 -203 164 -243 b 654 -11 522 -243 654 -197 l 654 828 l 358 828 l 358 214 b 351 208 353 208 351 208 b 350 210 350 208 350 208 b 349 210 350 210 350 210 b 339 224 344 210 342 214 l 339 826 l 44 826 l 43 158 b 208 15 43 74 115 15 b 357 75 286 15 340 47 l 357 -39 b 347 -53 357 -49 354 -53 l 344 -53 l 340 -53 b 331 -39 333 -53 331 -49 l 331 -18 z m 254 861 l 431 860 l 521 1036 l 314 1036 z "},"ÿ":{"ha":693,"x_min":0,"x_max":0,"o":"m 36 -18 b 344 -243 40 -200 164 -243 b 654 -11 522 -243 654 -197 l 654 828 l 358 828 l 358 214 b 351 208 353 208 351 208 b 350 210 350 208 350 208 b 349 210 350 210 350 210 b 342 224 344 210 342 214 l 339 826 l 44 826 l 43 158 b 208 15 43 74 115 15 b 357 75 286 15 340 47 l 357 -39 b 347 -53 357 -49 354 -53 l 344 -53 l 342 -53 b 332 -39 335 -53 332 -49 l 332 -18 z m 571 863 l 571 1057 l 357 1057 l 357 863 z m 338 863 l 338 1057 l 124 1057 l 124 863 z "},"ž":{"ha":671,"x_min":0,"x_max":0,"o":"m 121 1035 l 231 863 l 440 863 l 550 1035 l 375 1035 l 336 992 l 297 1035 z m 32 828 l 32 589 l 308 589 l 36 190 l 36 0 l 639 0 l 639 238 l 363 238 l 638 635 l 638 828 z "},"-":{"ha":708,"x_min":0,"x_max":0,"o":"m 36 421 l 418 421 l 418 681 l 36 681 z "},"€":{"ha":813,"x_min":0,"x_max":0,"o":"m 36 735 l 36 567 l 90 567 l 90 544 l 36 544 l 36 378 l 90 378 l 90 260 b 435 -10 90 72 213 -10 b 776 260 657 -10 776 72 l 776 354 l 443 354 l 443 233 b 435 225 443 228 440 225 b 425 233 428 225 425 228 l 425 378 l 469 378 l 469 544 l 425 544 l 425 567 l 469 567 l 469 735 l 425 735 l 425 878 b 435 886 425 883 428 886 b 443 878 440 886 443 883 l 443 753 l 776 753 l 776 851 b 435 1125 776 1039 657 1125 b 90 851 213 1125 90 1039 l 90 735 z "},"ƒ":{"ha":464,"x_min":0,"x_max":0,"o":"m 32 -10 b 375 218 271 -10 375 44 l 375 638 l 431 638 l 431 826 l 375 826 l 375 888 b 400 924 375 910 383 924 l 431 924 l 431 1113 l 357 1113 b 79 881 189 1113 79 1049 l 79 826 l 38 826 l 38 638 l 79 638 l 79 224 b 33 175 79 182 40 175 z "},"ˆ":{"ha":500,"x_min":0,"x_max":0,"o":"m 211 863 l 251 906 l 289 863 l 465 863 l 354 1036 l 146 1036 l 36 863 z "},"˜":{"ha":622,"x_min":0,"x_max":0,"o":"m 121 860 b 165 913 121 899 138 913 b 404 861 219 913 314 858 b 588 1053 481 863 588 885 l 503 1053 b 467 1003 503 1015 489 1003 b 228 1058 417 1003 322 1058 b 36 860 174 1058 36 1032 z "},"«":{"ha":849,"x_min":0,"x_max":0,"o":"m 319 544 l 551 261 l 813 261 l 579 544 l 813 828 l 551 828 z m 268 261 l 529 261 l 297 544 l 529 828 l 268 828 l 36 544 z "},"»":{"ha":849,"x_min":0,"x_max":0,"o":"m 319 260 l 579 260 l 813 543 l 579 826 l 319 826 l 551 543 z m 297 260 l 529 543 l 297 826 l 36 826 l 268 543 l 36 260 z "},"˘":{"ha":751,"x_min":0,"x_max":0,"o":"m 394 856 b 632 1035 517 856 632 890 l 440 1035 b 394 949 439 964 435 949 b 350 1035 350 949 350 969 l 158 1035 b 394 856 158 890 271 856 z "},"˙":{"ha":297,"x_min":0,"x_max":0,"o":"m 36 960 b 149 857 36 903 86 857 b 261 960 214 857 261 903 b 149 1064 261 1017 214 1064 b 36 960 86 1064 36 1017 z "},"˚":{"ha":372,"x_min":0,"x_max":0,"o":"m 168 985 b 185 1000 168 994 174 1000 b 201 985 196 1000 201 994 b 185 969 201 975 196 969 b 168 985 174 969 168 975 z m 185 849 b 336 985 272 849 336 908 b 185 1121 336 1061 272 1121 b 36 985 101 1121 36 1061 b 185 849 36 908 101 849 z "},"˝":{"ha":576,"x_min":0,"x_max":0,"o":"m 261 844 l 293 1015 l 68 1015 l 36 844 z m 285 844 l 510 844 l 542 1015 l 317 1015 z "},"˛":{"ha":365,"x_min":0,"x_max":0,"o":"m 343 -117 b 239 -92 283 -117 243 -104 b 238 -81 238 -86 238 -82 b 335 0 238 -62 261 -35 l 204 8 b 50 -140 114 -17 50 -81 b 81 -199 50 -142 42 -165 b 344 -257 121 -233 204 -257 z "},"ˇ":{"ha":500,"x_min":0,"x_max":0,"o":"m 146 863 l 354 863 l 465 1035 l 289 1035 l 251 992 l 211 1035 l 36 1035 z "},"ı":{"ha":378,"x_min":0,"x_max":0,"o":"m 39 851 l 339 851 l 339 1111 l 39 1111 z m 39 0 l 336 0 l 336 826 l 39 826 z "},"Ā":{"ha":856,"x_min":0,"x_max":0,"o":"m 404 349 b 428 729 411 468 424 729 b 438 583 432 679 435 631 l 451 349 z m 32 0 l 374 0 l 383 110 l 465 110 l 475 0 l 824 0 l 629 1111 l 224 1111 z m 657 1140 l 657 1321 l 199 1321 l 199 1140 z "},"ā":{"ha":685,"x_min":0,"x_max":0,"o":"m 336 319 b 349 333 336 329 336 333 l 354 333 l 353 167 b 336 186 332 168 336 176 z m 39 136 b 204 -4 38 51 111 -4 b 353 61 286 -4 338 33 l 353 0 l 653 0 b 653 1 653 0 653 0 l 653 4 l 653 7 l 653 28 l 653 31 l 653 32 l 653 35 l 653 38 l 653 43 l 653 46 l 653 49 l 653 56 b 653 57 653 56 653 56 l 653 58 l 653 61 l 653 64 l 653 71 l 653 78 l 653 81 l 653 118 l 653 121 l 653 125 l 653 128 l 653 133 l 653 142 l 653 146 l 653 149 l 653 158 b 653 160 653 158 653 158 l 653 164 l 653 167 l 653 171 l 653 175 b 651 429 653 254 651 347 l 651 482 l 651 489 l 651 493 l 651 503 l 651 506 l 651 515 l 651 522 b 651 524 651 524 651 524 l 651 526 b 651 528 651 528 651 528 l 651 572 l 651 578 l 651 581 l 651 586 l 651 588 l 651 593 l 651 596 b 651 597 651 597 651 597 l 651 599 b 651 600 651 599 651 599 l 651 603 b 356 835 651 758 496 833 b 42 603 201 838 46 786 l 40 540 l 336 540 l 336 631 b 346 644 336 640 339 644 b 356 631 353 644 356 640 l 356 504 l 315 504 b 40 272 149 504 42 440 z m 586 851 l 586 1042 l 104 1042 l 104 851 z "},"Ă":{"ha":856,"x_min":0,"x_max":0,"o":"m 404 349 b 428 729 411 468 424 729 b 438 583 432 679 435 631 l 451 349 z m 374 0 l 383 110 l 465 110 l 475 0 l 824 0 l 629 1111 l 224 1111 l 32 0 z m 192 1318 b 428 1139 192 1174 306 1139 b 665 1318 550 1139 665 1174 l 474 1318 b 428 1232 472 1247 468 1232 b 383 1318 385 1232 383 1253 z "},"ă":{"ha":685,"x_min":0,"x_max":0,"o":"m 336 319 b 349 333 336 329 336 333 l 354 333 l 353 167 b 336 186 332 168 336 176 z m 204 -4 b 353 61 286 -4 338 33 l 353 0 l 653 0 b 653 1 653 0 653 0 l 653 4 l 653 7 l 653 28 l 653 31 l 653 32 l 653 35 l 653 38 l 653 43 l 653 46 l 653 49 l 653 56 b 653 57 653 56 653 56 l 653 58 l 653 61 l 653 64 l 653 71 l 653 78 l 653 81 l 653 118 l 653 121 l 653 125 l 653 128 l 653 133 l 653 142 l 653 146 l 653 149 l 653 158 b 653 160 653 158 653 158 l 653 164 l 653 167 l 653 171 l 653 175 b 651 429 653 254 651 347 l 651 482 l 651 489 l 651 493 l 651 503 l 651 506 l 651 515 l 651 522 b 651 524 651 524 651 524 l 651 526 b 651 528 651 528 651 528 l 651 572 l 651 578 l 651 581 l 651 586 l 651 588 l 651 593 l 651 596 b 651 597 651 597 651 597 l 651 599 b 651 600 651 599 651 599 l 651 603 b 356 835 651 758 496 833 b 42 603 201 838 46 786 l 40 540 l 336 540 l 336 631 b 346 644 336 640 339 644 b 356 631 353 644 356 640 l 356 504 l 315 504 b 40 272 149 504 42 440 l 39 136 b 204 -4 38 51 111 -4 z m 108 1035 b 346 856 108 890 224 856 b 582 1035 468 856 582 890 l 390 1035 b 346 949 390 964 386 949 b 301 1035 300 949 301 969 z "},"Ą":{"ha":864,"x_min":0,"x_max":0,"o":"m 428 729 b 438 583 432 679 435 631 l 451 349 l 404 349 b 428 729 411 468 424 729 z m 32 0 l 374 0 l 383 110 l 465 110 l 475 0 l 668 0 b 538 -139 582 -31 538 -94 b 574 -204 538 -149 533 -172 b 832 -257 617 -236 697 -257 l 832 -117 b 728 -92 772 -117 732 -104 b 725 -81 726 -86 725 -82 b 824 0 725 -62 747 -35 l 629 1111 l 224 1111 z "},"ą":{"ha":685,"x_min":0,"x_max":0,"o":"m 336 319 b 349 333 336 329 336 333 l 354 333 l 353 167 b 336 186 332 168 336 176 z m 39 136 b 204 -4 38 51 111 -4 b 353 61 286 -4 338 33 l 353 0 l 488 0 b 357 -137 400 -32 357 -93 b 393 -204 357 -147 353 -172 b 651 -257 436 -236 517 -257 l 651 -117 b 546 -92 590 -117 550 -104 b 543 -81 544 -86 543 -82 b 642 0 543 -62 565 -35 l 653 0 b 653 1 653 0 653 0 l 653 4 l 653 7 l 653 28 l 653 31 l 653 32 l 653 35 l 653 38 l 653 43 l 653 46 l 653 49 l 653 56 b 653 57 653 56 653 56 l 653 58 l 653 61 l 653 64 l 653 71 l 653 78 l 653 81 l 653 118 l 653 121 l 653 125 l 653 128 l 653 133 l 653 142 l 653 146 l 653 149 l 653 158 b 653 160 653 158 653 158 l 653 164 l 653 167 l 653 171 l 653 175 b 651 429 653 254 651 347 l 651 482 l 651 489 l 651 493 l 651 503 l 651 506 l 651 515 l 651 522 b 651 524 651 524 651 524 l 651 526 b 651 528 651 528 651 528 l 651 572 l 651 578 l 651 581 l 651 586 l 651 588 l 651 593 l 651 596 b 651 597 651 597 651 597 l 651 599 b 651 600 651 599 651 599 l 651 603 b 356 835 651 758 496 833 b 42 603 201 838 46 786 l 40 540 l 336 540 l 336 631 b 346 644 336 640 339 644 b 356 631 353 644 356 640 l 356 504 l 315 504 b 40 272 149 504 42 440 z "},"Ć":{"ha":757,"x_min":0,"x_max":0,"o":"m 36 260 b 378 -10 36 72 156 -10 b 721 260 600 -10 721 72 l 721 489 l 388 489 l 388 233 b 378 225 388 228 385 225 b 368 233 371 225 368 228 l 368 878 b 378 886 368 883 371 886 b 388 878 385 886 388 883 l 388 640 l 721 640 l 721 851 b 378 1125 721 1039 600 1125 b 36 851 156 1125 36 1039 z m 457 1139 l 514 1311 l 285 1311 l 242 1139 z "},"ć":{"ha":678,"x_min":0,"x_max":0,"o":"m 36 232 b 326 0 36 96 161 0 l 353 0 b 642 232 513 0 642 96 l 642 378 l 347 378 l 347 204 b 339 190 347 197 344 192 b 331 204 333 192 331 197 l 331 644 b 339 658 331 653 333 657 b 347 644 344 657 347 651 l 347 476 l 642 476 l 642 617 b 329 856 642 792 500 856 b 36 617 150 856 36 749 z m 213 861 l 390 860 l 481 1036 l 272 1036 z "},"Ĉ":{"ha":757,"x_min":0,"x_max":0,"o":"m 36 260 b 378 -10 36 72 156 -10 b 721 260 600 -10 721 72 l 721 489 l 388 489 l 388 233 b 378 225 388 228 385 225 b 368 233 371 225 368 228 l 368 878 b 378 886 368 883 371 886 b 388 878 385 886 388 883 l 388 640 l 721 640 l 721 851 b 378 1125 721 1039 600 1125 b 36 851 156 1125 36 1039 z m 154 1140 l 357 1140 l 378 1200 l 399 1140 l 603 1140 l 518 1311 l 239 1311 z "},"ĉ":{"ha":678,"x_min":0,"x_max":0,"o":"m 36 232 b 326 0 36 96 161 0 l 353 0 b 642 232 513 0 642 96 l 642 378 l 347 378 l 347 204 b 339 190 347 197 344 192 b 331 204 333 192 331 197 l 331 644 b 339 658 331 653 333 657 b 347 644 344 657 347 651 l 347 476 l 642 476 l 642 617 b 329 856 642 792 500 856 b 36 617 150 856 36 749 z m 307 863 l 347 906 l 385 863 l 561 863 l 451 1036 l 242 1036 l 132 863 z "},"Ċ":{"ha":757,"x_min":0,"x_max":0,"o":"m 36 260 b 378 -10 36 72 156 -10 b 721 260 600 -10 721 72 l 721 489 l 388 489 l 388 233 b 378 225 388 228 385 225 b 368 233 371 225 368 228 l 368 878 b 378 886 368 883 371 886 b 388 878 385 886 388 883 l 388 640 l 721 640 l 721 851 b 378 1125 721 1039 600 1125 b 36 851 156 1125 36 1039 z m 265 1258 b 378 1156 265 1201 315 1156 b 490 1258 443 1156 490 1201 b 378 1361 490 1314 443 1361 b 265 1258 315 1361 265 1314 z "},"ċ":{"ha":678,"x_min":0,"x_max":0,"o":"m 36 232 b 326 0 36 96 161 0 l 353 0 b 642 232 513 0 642 96 l 642 378 l 347 378 l 347 204 b 339 190 347 197 344 192 b 331 204 333 192 331 197 l 331 644 b 339 658 331 653 333 657 b 347 644 344 657 347 651 l 347 476 l 642 476 l 642 617 b 329 856 642 792 500 856 b 36 617 150 856 36 749 z m 339 867 b 453 971 404 867 453 911 b 339 1074 453 1026 404 1074 b 225 971 274 1074 225 1026 b 339 867 225 911 274 867 z "},"Č":{"ha":757,"x_min":0,"x_max":0,"o":"m 36 260 b 378 -10 36 72 156 -10 b 721 260 600 -10 721 72 l 721 489 l 388 489 l 388 233 b 378 225 388 228 385 225 b 368 233 371 225 368 228 l 368 878 b 378 886 368 883 371 886 b 388 878 385 886 388 883 l 388 640 l 721 640 l 721 851 b 378 1125 721 1039 600 1125 b 36 851 156 1125 36 1039 z m 164 1313 l 274 1140 l 483 1140 l 593 1313 l 418 1313 l 378 1269 l 339 1313 z "},"č":{"ha":678,"x_min":0,"x_max":0,"o":"m 36 232 b 326 0 36 96 161 0 l 353 0 b 642 232 513 0 642 96 l 642 378 l 347 378 l 347 204 b 339 190 347 197 344 192 b 331 204 333 192 331 197 l 331 644 b 339 658 331 653 333 657 b 347 644 344 657 347 651 l 347 476 l 642 476 l 642 617 b 329 856 642 792 500 856 b 36 617 150 856 36 749 z m 132 1035 l 242 863 l 451 863 l 561 1035 l 385 1035 l 347 992 l 307 1035 z "},"Ď":{"ha":758,"x_min":0,"x_max":0,"o":"m 372 239 l 372 872 l 381 872 b 390 864 388 872 390 869 l 390 247 b 381 239 390 242 388 239 z m 39 1111 l 39 0 l 382 0 b 724 274 603 0 724 86 l 724 838 b 381 1111 724 1025 603 1111 z m 128 1313 l 236 1140 l 446 1140 l 557 1313 l 381 1313 l 342 1269 l 303 1313 z "},"ď":{"ha":971,"x_min":0,"x_max":0,"o":"m 346 651 b 350 639 350 651 350 643 l 350 190 l 346 186 b 343 185 344 185 344 185 b 332 199 336 185 333 189 l 332 638 b 346 651 332 647 336 651 z m 683 939 l 878 939 l 939 1110 l 728 1110 z m 200 -3 b 349 51 278 -3 332 24 l 349 0 l 647 0 l 647 1111 l 349 1111 l 349 818 b 256 833 317 828 286 833 b 38 610 115 833 38 738 l 36 167 b 200 -3 36 82 85 -3 z "},"Đ":{"ha":783,"x_min":0,"x_max":0,"o":"m 406 872 b 414 864 411 872 414 869 l 414 247 b 406 239 414 242 411 239 l 396 239 l 396 433 l 406 433 l 406 675 l 396 675 l 396 872 z m 32 675 l 32 433 l 63 433 l 63 0 l 407 0 b 747 274 628 0 747 86 l 747 838 b 406 1111 747 1025 628 1111 l 63 1111 l 63 675 z "},"đ":{"ha":940,"x_min":0,"x_max":0,"o":"m 444 651 b 450 639 450 651 450 643 l 450 190 l 444 186 b 442 185 443 185 443 185 b 431 199 436 185 432 189 l 431 638 b 444 651 431 647 435 651 z m 300 -3 b 449 51 378 -3 432 24 l 449 0 l 746 0 l 746 843 l 790 843 l 790 1033 l 746 1033 l 746 1111 l 449 1111 l 449 1033 l 413 1033 l 413 843 l 449 843 l 449 818 b 354 833 417 828 385 833 b 136 610 215 833 136 738 l 135 167 b 300 -3 135 82 185 -3 z "},"Ē":{"ha":629,"x_min":0,"x_max":0,"o":"m 90 1321 l 90 1140 l 547 1140 l 547 1321 z m 596 0 l 596 260 l 372 260 l 372 428 l 528 428 l 528 678 l 372 678 l 372 851 l 596 851 l 596 1111 l 39 1111 l 39 0 z "},"ē":{"ha":682,"x_min":0,"x_max":0,"o":"m 342 644 b 349 633 346 644 349 640 l 349 440 l 333 440 l 333 633 b 342 644 333 640 336 644 z m 36 225 b 336 -1 36 58 211 -1 b 647 226 461 -1 647 49 l 647 308 l 349 308 l 349 199 b 339 183 349 182 343 183 b 340 183 340 183 340 183 b 333 199 340 183 333 182 l 333 332 l 647 332 l 647 601 b 338 833 647 772 461 833 b 36 601 213 833 36 768 z m 582 851 l 582 1042 l 100 1042 l 100 851 z "},"Ĕ":{"ha":629,"x_min":0,"x_max":0,"o":"m 596 0 l 596 260 l 372 260 l 372 428 l 528 428 l 528 678 l 372 678 l 372 851 l 596 851 l 596 1111 l 39 1111 l 39 0 z m 319 1139 b 557 1318 446 1139 557 1174 l 365 1318 b 321 1232 365 1247 361 1232 b 275 1318 276 1232 275 1253 l 83 1318 b 319 1139 83 1174 197 1139 z "},"ĕ":{"ha":682,"x_min":0,"x_max":0,"o":"m 342 644 b 349 633 346 644 349 640 l 349 440 l 333 440 l 333 633 b 342 644 333 640 336 644 z m 36 225 b 336 -1 36 58 211 -1 b 647 226 461 -1 647 49 l 647 308 l 349 308 l 349 199 b 339 183 349 182 343 183 b 340 183 340 183 340 183 b 333 199 340 183 333 182 l 333 332 l 647 332 l 647 601 b 338 833 647 772 461 833 b 36 601 213 833 36 768 z m 104 1035 b 342 856 104 890 219 856 b 578 1035 463 856 578 890 l 385 1035 b 342 949 385 964 382 949 b 297 1035 296 949 297 969 z "},"Ė":{"ha":629,"x_min":0,"x_max":0,"o":"m 39 1111 l 39 0 l 596 0 l 596 260 l 372 260 l 372 428 l 528 428 l 528 678 l 372 678 l 372 851 l 596 851 l 596 1111 z m 314 1140 b 426 1243 376 1140 426 1186 b 314 1347 426 1300 376 1347 b 200 1243 249 1347 200 1300 b 314 1140 200 1186 249 1140 z "},"ė":{"ha":682,"x_min":0,"x_max":0,"o":"m 342 644 b 349 633 346 644 349 640 l 349 440 l 333 440 l 333 633 b 342 644 333 640 336 644 z m 36 225 b 336 -1 36 58 211 -1 b 647 226 461 -1 647 49 l 647 308 l 349 308 l 349 199 b 339 183 349 182 343 183 b 340 183 340 183 340 183 b 333 199 340 183 333 182 l 333 332 l 647 332 l 647 601 b 338 833 647 772 461 833 b 36 601 213 833 36 768 z m 342 857 b 454 960 404 857 454 903 b 342 1064 454 1017 404 1064 b 228 960 276 1064 228 1017 b 342 857 228 903 276 857 z "},"Ę":{"ha":635,"x_min":0,"x_max":0,"o":"m 39 1111 l 39 0 l 439 0 b 308 -139 353 -31 308 -94 b 344 -204 308 -149 304 -172 b 603 -257 388 -236 468 -257 l 603 -117 b 499 -92 543 -117 503 -104 b 496 -81 497 -86 496 -82 b 596 0 496 -62 522 -35 l 596 260 l 372 260 l 372 428 l 528 428 l 528 678 l 372 678 l 372 851 l 596 851 l 596 1111 z "},"ę":{"ha":682,"x_min":0,"x_max":0,"o":"m 342 644 b 349 633 346 644 349 640 l 349 440 l 333 440 l 333 633 b 342 644 333 640 336 644 z m 415 -117 b 313 -92 358 -117 317 -104 b 310 -81 311 -86 310 -82 b 408 0 310 -62 332 -35 b 647 226 521 18 647 82 l 647 308 l 349 308 l 349 199 b 339 183 349 182 343 183 b 340 183 340 183 340 183 b 333 199 340 183 333 182 l 333 332 l 647 332 l 647 601 b 338 833 647 772 461 833 b 36 601 213 833 36 768 l 36 225 b 257 3 36 92 146 25 b 122 -140 171 -26 122 -92 b 157 -203 122 -146 114 -171 b 415 -257 200 -235 281 -257 z "},"Ě":{"ha":629,"x_min":0,"x_max":0,"o":"m 208 1140 l 418 1140 l 528 1313 l 351 1313 l 314 1269 l 274 1313 l 99 1313 z m 596 0 l 596 260 l 372 260 l 372 428 l 528 428 l 528 678 l 372 678 l 372 851 l 596 851 l 596 1111 l 39 1111 l 39 0 z "},"ě":{"ha":682,"x_min":0,"x_max":0,"o":"m 342 644 b 349 633 346 644 349 640 l 349 440 l 333 440 l 333 633 b 342 644 333 640 336 644 z m 36 225 b 336 -1 36 58 211 -1 b 647 226 461 -1 647 49 l 647 308 l 349 308 l 349 199 b 339 183 349 182 343 183 b 340 183 340 183 340 183 b 333 199 340 183 333 182 l 333 332 l 647 332 l 647 601 b 338 833 647 772 461 833 b 36 601 213 833 36 768 z m 125 1035 l 236 863 l 446 863 l 556 1035 l 379 1035 l 342 992 l 301 1035 z "},"Ĝ":{"ha":757,"x_min":0,"x_max":0,"o":"m 36 260 b 378 -10 36 72 156 -10 b 721 260 600 -10 722 72 l 719 553 l 719 658 l 381 658 l 381 419 l 388 419 l 388 233 b 378 225 388 228 385 225 b 368 233 371 225 368 228 l 368 878 b 378 886 368 883 371 886 b 388 878 385 886 388 883 l 388 713 l 721 713 l 721 851 b 378 1125 721 1039 600 1125 b 36 851 156 1125 36 1039 z m 154 1140 l 357 1140 l 378 1200 l 399 1140 l 603 1140 l 518 1311 l 239 1311 z "},"ĝ":{"ha":693,"x_min":0,"x_max":0,"o":"m 353 650 b 358 646 357 650 358 649 l 358 644 l 358 640 b 358 639 358 640 358 640 b 358 638 358 639 358 639 b 358 636 358 636 358 636 l 358 210 l 353 206 l 351 206 b 350 206 350 206 350 206 b 339 219 344 206 340 210 l 339 636 b 353 650 339 646 343 650 z m 36 -18 b 344 -246 36 -201 168 -246 b 654 0 522 -246 654 -185 l 654 828 l 357 828 l 357 817 b 263 833 325 826 294 833 b 44 608 124 833 44 736 l 43 167 b 208 11 43 82 118 11 b 357 71 286 11 340 43 l 357 -42 b 344 -56 357 -51 353 -56 b 331 -42 335 -56 331 -51 l 331 -18 z m 132 863 l 308 863 l 347 906 l 388 863 l 563 863 l 453 1036 l 242 1036 z "},"Ğ":{"ha":757,"x_min":0,"x_max":0,"o":"m 36 260 b 378 -10 36 72 156 -10 b 721 260 600 -10 722 72 l 719 553 l 719 658 l 381 658 l 381 419 l 388 419 l 388 233 b 378 225 388 228 385 225 b 368 233 371 225 368 228 l 368 878 b 378 886 368 883 371 886 b 388 878 385 886 388 883 l 388 713 l 721 713 l 721 851 b 378 1125 721 1039 600 1125 b 36 851 156 1125 36 1039 z m 140 1318 b 378 1139 140 1174 256 1139 b 614 1318 506 1139 614 1174 l 424 1318 b 378 1232 424 1247 418 1232 b 333 1318 335 1232 333 1253 z "},"ğ":{"ha":693,"x_min":0,"x_max":0,"o":"m 353 650 b 358 646 357 650 358 649 l 358 644 l 358 640 b 358 639 358 640 358 640 b 358 638 358 639 358 639 b 358 636 358 636 358 636 l 358 210 l 353 206 l 351 206 b 350 206 350 206 350 206 b 339 219 344 206 340 210 l 339 636 b 353 650 339 646 343 650 z m 36 -18 b 344 -246 36 -201 168 -246 b 654 0 522 -246 654 -185 l 654 828 l 357 828 l 357 817 b 263 833 325 826 294 833 b 44 608 124 833 44 736 l 43 167 b 208 11 43 82 118 11 b 357 71 286 11 340 43 l 357 -42 b 344 -56 357 -51 353 -56 b 331 -42 335 -56 331 -51 l 331 -18 z m 347 856 b 583 1035 471 856 583 890 l 393 1035 b 347 949 392 964 388 949 b 303 1035 303 949 303 969 l 110 1035 b 347 856 110 890 225 856 z "},"Ġ":{"ha":757,"x_min":0,"x_max":0,"o":"m 36 260 b 378 -10 36 72 156 -10 b 721 260 600 -10 722 72 l 719 553 l 719 658 l 381 658 l 381 419 l 388 419 l 388 233 b 378 225 388 228 385 225 b 368 233 371 225 368 228 l 368 878 b 378 886 368 883 371 886 b 388 878 385 886 388 883 l 388 713 l 721 713 l 721 851 b 378 1125 721 1039 600 1125 b 36 851 156 1125 36 1039 z m 378 1361 b 265 1258 315 1361 265 1314 b 378 1156 265 1201 315 1156 b 490 1258 443 1156 490 1201 b 378 1361 490 1314 443 1361 z "},"ġ":{"ha":693,"x_min":0,"x_max":0,"o":"m 353 650 b 358 646 357 650 358 649 l 358 644 l 358 640 b 358 639 358 640 358 640 b 358 638 358 639 358 639 b 358 636 358 636 358 636 l 358 210 l 353 206 l 351 206 b 350 206 350 206 350 206 b 339 219 344 206 340 210 l 339 636 b 353 650 339 646 343 650 z m 344 -246 b 654 0 522 -246 654 -185 l 654 828 l 357 828 l 357 817 b 263 833 325 826 294 833 b 44 608 124 833 44 736 l 43 167 b 208 11 43 82 118 11 b 357 71 286 11 340 43 l 357 -42 b 344 -56 357 -51 353 -56 b 331 -42 335 -56 331 -51 l 331 -18 l 36 -18 b 344 -246 36 -201 168 -246 z m 235 960 b 347 857 235 903 285 857 b 460 960 410 857 460 903 b 347 1064 460 1017 410 1064 b 235 960 285 1064 235 1017 z "},"Ģ":{"ha":757,"x_min":0,"x_max":0,"o":"m 422 -244 l 513 -26 l 301 -26 l 257 -244 z m 36 260 b 378 -10 36 72 156 -10 b 721 260 600 -10 722 72 l 719 553 l 719 658 l 381 658 l 381 419 l 388 419 l 388 233 b 378 225 388 228 385 225 b 368 233 371 225 368 228 l 368 878 b 378 886 368 883 371 886 b 388 878 385 886 388 883 l 388 713 l 721 713 l 721 851 b 378 1125 721 1039 600 1125 b 36 851 156 1125 36 1039 z "},"ģ":{"ha":693,"x_min":0,"x_max":0,"o":"m 339 636 b 353 650 339 646 343 650 b 358 636 358 650 358 642 l 358 210 l 353 206 l 351 206 b 350 206 350 206 350 206 b 339 219 344 206 340 210 z m 36 -18 b 344 -246 40 -201 164 -246 b 654 0 522 -246 654 -185 l 654 828 l 357 828 l 357 817 b 263 833 325 826 294 833 b 44 608 124 833 44 736 l 43 167 b 208 11 43 82 118 11 b 357 71 286 11 340 43 l 357 -42 b 344 -56 357 -51 353 -56 b 331 -42 335 -56 331 -51 l 331 -18 z m 426 854 l 517 1090 l 331 1090 l 288 854 z "},"Ĥ":{"ha":761,"x_min":0,"x_max":0,"o":"m 360 1140 l 381 1200 l 403 1140 l 606 1140 l 521 1311 l 242 1311 l 158 1140 z m 39 0 l 372 0 l 372 435 l 390 435 l 390 0 l 724 0 l 724 1111 l 390 1111 l 390 675 l 372 675 l 372 1111 l 39 1111 z "},"ĥ":{"ha":685,"x_min":0,"x_max":0,"o":"m 394 921 l 531 921 l 624 1111 l 433 1111 z m 39 1111 l 39 0 l 336 0 l 336 622 b 344 629 338 626 340 629 b 351 614 344 629 351 629 l 351 0 l 650 0 l 650 683 b 485 833 650 783 594 833 b 336 758 404 833 354 788 l 336 1111 z "},"Ħ":{"ha":800,"x_min":0,"x_max":0,"o":"m 406 833 l 406 675 l 389 675 l 389 833 z m 54 833 l 54 0 l 389 0 l 389 435 l 406 435 l 406 0 l 740 0 l 740 833 l 761 833 l 761 1024 l 740 1024 l 740 1111 l 406 1111 l 406 1024 l 389 1024 l 389 1111 l 54 1111 l 54 1024 l 32 1024 l 32 833 z "},"ħ":{"ha":881,"x_min":0,"x_max":0,"o":"m 151 846 l 151 0 l 450 0 l 450 622 b 457 629 451 626 453 629 b 465 614 457 629 465 629 l 465 0 l 763 0 l 763 683 b 596 833 763 783 707 833 b 450 758 517 833 465 788 l 450 846 l 504 846 l 504 1036 l 450 1036 l 450 1111 l 151 1111 l 151 1036 l 97 1036 l 97 846 z "},"Ĩ":{"ha":617,"x_min":0,"x_max":0,"o":"m 143 1111 l 143 0 l 475 0 l 475 1111 z m 118 1138 b 163 1190 118 1176 133 1190 b 400 1139 217 1190 313 1136 b 583 1331 479 1140 583 1163 l 500 1331 b 464 1281 500 1293 486 1281 b 225 1336 413 1281 321 1336 b 32 1138 171 1336 32 1310 z "},"ĩ":{"ha":629,"x_min":0,"x_max":0,"o":"m 175 826 l 175 0 l 472 0 l 472 826 z m 124 860 b 167 913 124 899 140 913 b 407 861 224 913 317 858 b 590 1053 485 863 590 885 l 506 1053 b 469 1003 506 1015 492 1003 b 231 1058 418 1003 326 1058 b 39 860 178 1058 39 1032 z "},"Ī":{"ha":524,"x_min":0,"x_max":0,"o":"m 32 1321 l 32 1140 l 490 1140 l 490 1321 z m 94 0 l 428 0 l 428 1111 l 94 1111 z "},"ī":{"ha":549,"x_min":0,"x_max":0,"o":"m 32 851 l 517 851 l 517 1042 l 32 1042 z m 133 0 l 431 0 l 431 826 l 133 826 z "},"Į":{"ha":410,"x_min":0,"x_max":0,"o":"m 372 -117 b 271 -93 313 -117 272 -104 b 269 -83 269 -87 269 -85 b 372 0 269 -62 296 -35 l 372 1111 l 39 1111 l 39 0 l 208 0 b 78 -139 122 -31 78 -94 b 114 -204 78 -149 74 -172 b 372 -257 157 -236 238 -257 z "},"į":{"ha":378,"x_min":0,"x_max":0,"o":"m 176 0 b 44 -139 92 -31 44 -94 b 81 -204 44 -149 40 -172 b 339 -257 124 -236 206 -257 l 339 -117 b 238 -93 279 -117 242 -104 b 236 -82 236 -87 236 -83 b 339 0 236 -64 265 -35 l 339 826 l 42 826 l 42 0 z m 42 1111 l 42 851 l 342 851 l 342 1111 z "},"İ":{"ha":410,"x_min":0,"x_max":0,"o":"m 372 0 l 372 1111 l 39 1111 l 39 0 z m 206 1144 b 318 1247 271 1144 318 1190 b 206 1350 318 1303 271 1350 b 92 1247 143 1350 92 1303 b 206 1144 92 1190 143 1144 z "},"Ĳ":{"ha":1125,"x_min":0,"x_max":0,"o":"m 372 0 l 372 1111 l 39 1111 l 39 0 z m 400 400 l 400 260 b 743 -10 400 72 521 -10 b 1086 260 965 -10 1086 72 l 1086 1113 l 751 1111 l 751 233 b 743 225 751 228 749 225 b 733 233 736 225 733 228 l 733 400 z "},"ĳ":{"ha":707,"x_min":0,"x_max":0,"o":"m 336 0 l 336 826 l 39 826 l 39 0 z m 333 -243 l 351 -243 b 668 -11 532 -243 668 -196 l 668 826 l 368 826 l 368 -39 b 356 -53 368 -50 361 -53 l 351 -53 l 333 -53 z m 668 864 l 668 1133 l 368 1133 l 368 864 z m 39 863 l 339 863 l 339 1133 l 39 1133 z "},"Ĵ":{"ha":801,"x_min":0,"x_max":0,"o":"m 32 260 b 375 -10 32 72 153 -10 b 718 260 597 -10 718 72 l 718 1113 l 383 1111 l 383 233 b 375 225 383 228 381 225 b 365 233 368 225 365 228 l 365 400 l 32 400 z m 522 1140 l 544 1200 l 565 1140 l 769 1140 l 685 1311 l 406 1311 l 321 1140 z "},"ĵ":{"ha":465,"x_min":0,"x_max":0,"o":"m 40 -53 l 40 -243 l 60 -243 b 375 -11 239 -243 375 -196 l 375 826 l 76 826 l 76 -39 b 61 -53 76 -50 67 -53 l 58 -53 z m 4 863 l 179 863 l 219 906 l 257 863 l 433 863 l 322 1036 l 114 1036 z "},"Ķ":{"ha":876,"x_min":0,"x_max":0,"o":"m 321 -244 l 486 -244 l 576 -26 l 365 -26 z m 372 0 l 372 203 l 388 231 l 511 1 l 843 1 l 550 553 l 835 1111 l 501 1111 l 372 835 l 372 1111 l 39 1111 l 39 0 z "},"ķ":{"ha":753,"x_min":0,"x_max":0,"o":"m 260 -244 l 425 -244 l 514 -26 l 304 -26 z m 39 1111 l 39 0 l 336 0 l 336 114 l 353 147 l 424 0 l 719 0 l 499 428 l 701 826 l 406 826 l 336 678 l 336 1111 z "},"ĸ":{"ha":753,"x_min":0,"x_max":0,"o":"m 336 0 l 336 114 l 354 149 l 424 6 l 719 6 l 499 429 l 701 826 l 406 826 l 336 678 l 336 1111 l 39 1111 l 39 0 z "},"Ĺ":{"ha":629,"x_min":0,"x_max":0,"o":"m 140 1311 l 99 1139 l 314 1139 l 369 1311 z m 39 1111 l 39 0 l 596 0 l 596 260 l 372 260 l 372 1111 z "},"ĺ":{"ha":656,"x_min":0,"x_max":0,"o":"m 204 0 l 501 0 l 501 1111 l 204 1111 z m 506 1321 l 299 1321 l 239 1144 l 415 1144 z "},"Ļ":{"ha":629,"x_min":0,"x_max":0,"o":"m 229 -26 l 186 -244 l 350 -244 l 440 -26 z m 39 1111 l 39 0 l 596 0 l 596 260 l 372 260 l 372 1111 z "},"ļ":{"ha":651,"x_min":0,"x_max":0,"o":"m 204 0 l 501 0 l 501 1111 l 204 1111 z m 226 -265 l 364 -265 l 456 -29 l 269 -29 z "},"Ľ":{"ha":675,"x_min":0,"x_max":0,"o":"m 149 1140 l 358 1140 l 468 1313 l 292 1313 l 254 1269 l 214 1313 l 39 1313 z m 85 1111 l 85 0 l 642 0 l 642 260 l 419 260 l 419 1111 z "},"ľ":{"ha":678,"x_min":0,"x_max":0,"o":"m 428 1111 l 383 939 l 579 939 l 639 1111 z m 39 0 l 336 0 l 336 1111 l 39 1111 z "},"Ŀ":{"ha":672,"x_min":0,"x_max":0,"o":"m 511 614 b 640 733 585 614 640 668 b 511 853 640 799 585 853 b 381 733 438 853 381 799 b 511 614 381 668 438 614 z m 39 0 l 596 0 l 596 260 l 372 260 l 372 1111 l 39 1111 z "},"ŀ":{"ha":682,"x_min":0,"x_max":0,"o":"m 382 826 b 514 707 382 761 442 707 b 643 826 588 707 643 761 b 514 946 643 892 588 946 b 382 826 442 946 382 892 z m 39 1111 l 39 0 l 336 0 l 336 1111 z "},"Ń":{"ha":800,"x_min":0,"x_max":0,"o":"m 319 1311 l 278 1139 l 492 1139 l 549 1311 z m 39 1111 l 39 0 l 354 0 l 354 438 l 489 0 l 764 1 l 764 1113 l 457 1111 l 457 675 l 314 1111 z "},"ń":{"ha":685,"x_min":0,"x_max":0,"o":"m 336 0 l 336 622 b 344 629 338 626 340 629 b 351 614 344 629 351 629 l 351 1 l 650 1 l 650 683 b 485 833 650 783 594 833 b 336 758 404 833 354 788 l 336 828 l 39 828 l 39 0 z m 217 861 l 394 860 l 485 1036 l 276 1036 z "},"Ņ":{"ha":800,"x_min":0,"x_max":0,"o":"m 331 -26 l 288 -244 l 451 -244 l 542 -26 z m 39 1111 l 39 0 l 354 0 l 354 438 l 489 0 l 764 1 l 764 1113 l 457 1111 l 457 675 l 314 1111 z "},"ņ":{"ha":685,"x_min":0,"x_max":0,"o":"m 393 -244 l 483 -26 l 272 -26 l 228 -244 z m 336 0 l 336 622 b 344 629 338 626 340 629 b 351 614 344 629 351 629 l 351 1 l 650 1 l 650 683 b 485 833 650 783 594 833 b 336 758 404 833 354 788 l 336 828 l 39 828 l 39 0 z "},"Ň":{"ha":803,"x_min":0,"x_max":0,"o":"m 297 1140 l 506 1140 l 617 1313 l 440 1313 l 400 1269 l 363 1313 l 186 1313 z m 39 1111 l 39 0 l 354 0 l 354 438 l 489 0 l 764 1 l 764 1113 l 457 1111 l 457 675 l 314 1111 z "},"ň":{"ha":685,"x_min":0,"x_max":0,"o":"m 39 828 l 39 0 l 336 0 l 336 622 b 344 629 338 626 340 629 b 351 614 344 629 351 629 l 351 1 l 650 1 l 650 683 b 485 833 650 783 594 833 b 336 758 404 833 354 788 l 336 828 z m 246 863 l 456 863 l 565 1035 l 390 1035 l 350 992 l 313 1035 l 136 1035 z "},"ŉ":{"ha":938,"x_min":0,"x_max":0,"o":"m 32 608 l 197 608 l 286 826 l 76 826 z m 290 828 l 290 0 l 589 0 l 589 622 b 596 629 590 626 592 629 b 604 614 596 629 604 629 l 604 1 l 901 1 l 901 683 b 735 833 901 783 846 833 b 589 758 656 833 604 788 l 589 828 z "},"Ō":{"ha":757,"x_min":0,"x_max":0,"o":"m 368 878 b 378 886 368 883 371 886 b 388 878 385 886 388 883 l 388 233 b 378 225 388 228 385 225 b 368 233 371 225 368 228 z m 36 260 b 378 -10 36 72 156 -10 b 721 260 600 -10 721 72 l 721 851 b 378 1125 721 1039 600 1125 b 36 851 156 1125 36 1039 z m 607 1140 l 607 1321 l 149 1321 l 149 1140 z "},"ō":{"ha":678,"x_min":0,"x_max":0,"o":"m 331 629 b 339 643 331 638 333 642 b 347 629 344 642 347 636 l 347 189 b 339 175 347 182 344 176 b 331 189 333 176 331 182 z m 36 217 b 338 -11 36 51 207 -11 b 642 217 468 -11 642 50 l 642 601 b 336 833 642 769 468 833 b 36 601 204 833 36 765 z m 581 851 l 581 1042 l 97 1042 l 97 851 z "},"Ŏ":{"ha":757,"x_min":0,"x_max":0,"o":"m 368 878 b 378 886 368 883 371 886 b 388 878 385 886 388 883 l 388 233 b 378 225 388 228 385 225 b 368 233 371 225 368 228 z m 378 1125 b 36 851 156 1125 36 1039 l 36 260 b 378 -10 36 72 156 -10 b 721 260 600 -10 721 72 l 721 851 b 378 1125 721 1039 600 1125 z m 147 1318 b 383 1139 147 1174 258 1139 b 621 1318 506 1139 621 1174 l 428 1318 b 383 1232 428 1247 424 1232 b 338 1318 339 1232 339 1253 z "},"ŏ":{"ha":678,"x_min":0,"x_max":0,"o":"m 339 643 b 347 629 344 642 347 636 l 347 189 b 339 175 347 182 344 176 b 331 189 333 176 331 182 l 331 629 b 339 643 331 638 333 642 z m 338 -11 b 642 217 468 -11 642 50 l 642 601 b 336 833 642 769 468 833 b 36 601 204 833 36 765 l 36 217 b 338 -11 36 51 207 -11 z m 339 856 b 576 1035 461 856 576 890 l 383 1035 b 339 949 383 964 379 949 b 296 1035 294 949 296 969 l 103 1035 b 339 856 103 890 214 856 z "},"Ő":{"ha":757,"x_min":0,"x_max":0,"o":"m 368 878 b 378 886 368 883 371 886 b 388 878 385 886 388 883 l 388 233 b 378 225 388 228 385 225 b 368 233 371 225 368 228 z m 36 260 b 378 -10 36 72 156 -10 b 721 260 600 -10 721 72 l 721 851 b 378 1125 721 1039 600 1125 b 36 851 156 1125 36 1039 z m 131 1140 l 357 1140 l 389 1311 l 163 1311 z m 604 1140 l 636 1311 l 411 1311 l 378 1140 z "},"ő":{"ha":678,"x_min":0,"x_max":0,"o":"m 331 629 b 339 643 331 638 333 642 b 347 629 344 642 347 636 l 347 189 b 339 175 347 182 344 176 b 331 189 333 176 331 182 z m 338 -11 b 642 217 468 -11 642 50 l 642 601 b 336 833 642 769 468 833 b 36 601 204 833 36 765 l 36 217 b 338 -11 36 51 207 -11 z m 560 844 l 592 1015 l 367 1015 l 333 844 z m 313 844 l 344 1015 l 118 1015 l 86 844 z "},"Ŕ":{"ha":760,"x_min":0,"x_max":0,"o":"m 372 536 l 372 872 l 382 872 b 390 865 388 872 390 869 l 390 543 b 382 536 390 539 388 536 z m 39 0 l 372 0 l 372 299 l 378 299 l 431 0 l 728 0 l 660 388 b 725 572 703 433 725 496 l 725 839 b 382 1111 725 1024 600 1111 l 39 1111 z m 460 1139 l 517 1311 l 288 1311 l 244 1139 z "},"ŕ":{"ha":575,"x_min":0,"x_max":0,"o":"m 39 0 l 336 0 l 336 467 b 542 617 336 594 392 617 l 543 833 b 510 836 532 835 521 836 b 336 740 475 840 363 818 l 336 826 l 39 826 z m 342 860 l 431 1036 l 222 1036 l 164 861 z "},"Ŗ":{"ha":760,"x_min":0,"x_max":0,"o":"m 421 -244 l 510 -26 l 300 -26 l 256 -244 z m 372 536 l 372 872 l 382 872 b 390 865 388 872 390 869 l 390 543 b 382 536 390 539 388 536 z m 39 0 l 372 0 l 372 299 l 378 299 l 431 0 l 728 0 l 660 388 b 725 572 703 433 725 496 l 725 839 b 382 1111 725 1024 600 1111 l 39 1111 z "},"ŗ":{"ha":576,"x_min":0,"x_max":0,"o":"m 204 -244 l 292 -26 l 83 -26 l 39 -244 z m 338 0 l 338 467 b 543 617 338 594 393 617 l 544 833 b 511 836 533 835 522 836 b 338 740 476 840 364 818 l 338 826 l 40 826 l 40 0 z "},"Ř":{"ha":760,"x_min":0,"x_max":0,"o":"m 372 536 l 372 872 l 382 872 b 390 865 388 872 390 869 l 390 543 b 382 536 390 539 388 536 z m 39 0 l 372 0 l 372 299 l 378 299 l 431 0 l 728 0 l 660 388 b 725 572 703 433 725 496 l 725 839 b 382 1111 725 1024 600 1111 l 39 1111 z m 167 1313 l 276 1140 l 486 1140 l 596 1313 l 421 1313 l 381 1269 l 343 1313 z "},"ř":{"ha":575,"x_min":0,"x_max":0,"o":"m 336 0 l 336 467 b 542 617 336 594 392 617 l 543 833 b 510 836 532 835 521 836 b 336 740 475 840 363 818 l 336 826 l 39 826 l 39 0 z m 83 1035 l 192 863 l 403 863 l 513 1035 l 336 1035 l 297 992 l 258 1035 z "},"Ś":{"ha":771,"x_min":0,"x_max":0,"o":"m 382 1125 b 36 868 185 1125 36 1071 l 36 722 b 254 472 36 596 86 525 b 393 399 368 438 393 428 l 393 381 b 393 379 393 379 393 379 l 393 372 b 393 371 393 371 393 371 l 393 360 b 393 358 393 360 393 360 l 393 253 b 385 240 393 247 390 243 b 378 253 381 242 378 246 l 378 399 l 44 399 l 46 243 b 385 -10 47 38 188 -10 b 733 243 582 -10 732 38 l 735 390 b 515 656 736 513 656 613 b 376 721 400 692 376 700 b 376 722 376 721 376 721 l 376 724 l 376 726 l 376 732 b 376 733 376 733 376 733 l 376 735 l 376 736 l 376 738 b 376 739 376 738 376 738 l 376 743 l 376 744 l 376 747 l 376 858 b 385 871 376 865 379 869 b 396 858 392 869 396 865 l 396 711 l 728 711 l 728 868 b 382 1125 728 1075 581 1125 z m 303 1139 l 518 1139 l 575 1311 l 346 1311 z "},"ś":{"ha":690,"x_min":0,"x_max":0,"o":"m 51 568 b 372 289 61 307 372 332 l 372 186 b 360 175 372 179 368 175 b 346 186 350 175 346 179 l 346 296 l 51 296 l 51 213 b 360 -12 51 29 179 -12 b 668 206 539 -12 668 31 l 668 214 l 667 285 b 346 542 663 506 346 479 l 346 631 b 360 642 346 638 350 642 b 372 631 368 642 372 638 l 372 535 l 668 535 l 667 604 b 360 833 663 786 539 833 b 50 604 181 833 43 789 z m 411 860 l 501 1036 l 294 1036 l 235 861 z "},"Ŝ":{"ha":771,"x_min":0,"x_max":0,"o":"m 382 1125 b 36 868 185 1125 36 1071 l 36 722 b 254 472 36 596 86 525 b 393 399 368 438 393 428 l 393 381 b 393 379 393 379 393 379 l 393 372 b 393 371 393 371 393 371 l 393 360 b 393 358 393 360 393 360 l 393 253 b 385 240 393 247 390 243 b 378 253 381 242 378 246 l 378 399 l 44 399 l 46 243 b 385 -10 47 38 188 -10 b 733 243 582 -10 732 38 l 735 390 b 515 656 736 513 656 613 b 376 721 400 692 376 700 b 376 722 376 721 376 721 l 376 724 l 376 726 l 376 732 b 376 733 376 733 376 733 l 376 735 l 376 736 l 376 738 b 376 739 376 738 376 738 l 376 743 l 376 744 l 376 747 l 376 858 b 385 871 376 865 379 869 b 396 858 392 869 396 865 l 396 711 l 728 711 l 728 868 b 382 1125 728 1075 581 1125 z m 161 1140 l 364 1140 l 385 1200 l 407 1140 l 608 1140 l 525 1311 l 244 1311 z "},"ŝ":{"ha":690,"x_min":0,"x_max":0,"o":"m 51 568 b 372 289 61 307 372 332 l 372 186 b 360 175 372 179 368 175 b 346 186 350 175 346 179 l 346 296 l 51 296 l 51 213 b 360 -12 51 29 179 -12 b 668 206 539 -12 668 31 l 668 214 l 667 285 b 346 542 663 506 346 479 l 346 631 b 360 642 346 638 350 642 b 372 631 368 642 372 638 l 372 535 l 668 535 l 667 604 b 360 833 663 786 539 833 b 50 604 181 833 43 789 z m 329 863 l 367 906 l 407 863 l 582 863 l 472 1036 l 264 1036 l 153 863 z "},"Ş":{"ha":771,"x_min":0,"x_max":0,"o":"m 382 1125 b 36 868 185 1125 36 1071 l 36 722 b 254 472 36 596 86 525 b 393 399 368 438 393 428 l 393 381 b 393 379 393 379 393 379 l 393 372 b 393 371 393 371 393 371 l 393 360 b 393 358 393 360 393 360 l 393 253 b 385 240 393 247 390 243 b 378 253 381 242 378 246 l 378 399 l 44 399 l 46 243 b 342 -10 47 54 168 -3 l 314 -61 l 346 -61 b 385 -85 363 -61 385 -64 b 349 -108 385 -94 382 -108 l 278 -108 l 278 -244 l 332 -244 b 519 -112 449 -244 519 -185 b 481 -46 519 -78 501 -57 b 440 -31 469 -39 456 -33 l 453 -7 b 733 243 615 0 732 61 l 735 390 b 515 656 736 513 656 613 b 376 721 400 692 376 700 b 376 722 376 721 376 721 l 376 724 l 376 726 l 376 732 b 376 733 376 733 376 733 l 376 735 l 376 736 l 376 738 b 376 739 376 738 376 738 l 376 743 l 376 744 l 376 747 l 376 858 b 385 871 376 865 379 869 b 396 858 392 869 396 865 l 396 711 l 728 711 l 728 868 b 382 1125 728 1075 581 1125 z "},"ş":{"ha":690,"x_min":0,"x_max":0,"o":"m 51 568 b 372 289 61 307 372 332 l 372 186 b 360 175 372 179 368 175 b 346 186 350 175 346 179 l 346 296 l 51 296 l 51 213 b 314 -11 51 46 157 -4 l 288 -61 l 319 -61 b 360 -85 335 -61 360 -64 b 322 -108 360 -94 354 -108 l 251 -108 l 251 -244 l 304 -244 b 493 -112 421 -244 493 -185 b 454 -46 493 -78 472 -57 b 414 -31 442 -39 429 -33 l 425 -10 b 668 214 571 0 671 53 l 667 285 b 346 542 663 506 346 479 l 346 631 b 360 642 346 638 350 642 b 372 631 368 642 372 638 l 372 535 l 668 535 l 667 604 b 360 833 663 786 539 833 b 50 604 181 833 43 789 z "},"Ţ":{"ha":718,"x_min":0,"x_max":0,"o":"m 235 -244 l 399 -244 l 488 -26 l 276 -26 z m 193 851 l 193 0 l 526 0 l 526 851 l 686 851 l 686 1111 l 32 1111 l 32 851 z "},"ţ":{"ha":524,"x_min":0,"x_max":0,"o":"m 299 -244 l 388 -26 l 178 -26 l 133 -244 z m 32 636 l 83 636 l 83 222 b 363 -4 83 50 196 -4 b 490 1 403 -4 444 0 l 489 190 b 456 189 476 189 465 189 b 378 267 406 189 378 204 b 379 353 378 271 379 290 l 379 636 l 471 636 l 471 826 l 379 826 l 379 1036 l 83 1036 l 83 826 l 32 826 z "},"Ť":{"ha":718,"x_min":0,"x_max":0,"o":"m 254 1140 l 465 1140 l 575 1313 l 399 1313 l 360 1269 l 321 1313 l 146 1313 z m 193 851 l 193 0 l 526 0 l 526 851 l 686 851 l 686 1111 l 32 1111 l 32 851 z "},"ť":{"ha":699,"x_min":0,"x_max":0,"o":"m 413 864 l 607 864 l 667 1035 l 457 1035 z m 32 636 l 83 636 l 83 222 b 363 -4 83 50 196 -4 b 490 1 403 -4 444 0 l 489 190 b 456 189 476 189 465 189 b 378 267 406 189 378 204 b 379 353 378 271 379 290 l 379 636 l 471 636 l 471 826 l 379 826 l 379 1036 l 83 1036 l 83 826 l 32 826 z "},"Ŧ":{"ha":718,"x_min":0,"x_max":0,"o":"m 32 1111 l 32 874 l 193 874 l 193 672 l 108 672 l 108 482 l 193 482 l 193 0 l 526 0 l 526 482 l 610 482 l 610 672 l 526 672 l 526 874 l 686 874 l 686 1111 z "},"ŧ":{"ha":540,"x_min":0,"x_max":0,"o":"m 32 332 l 100 332 l 100 222 b 379 -4 100 50 213 -4 b 507 1 419 -4 461 0 l 506 190 b 474 189 493 189 483 189 b 394 332 408 185 388 219 l 475 332 l 475 522 l 394 522 l 394 636 l 486 636 l 486 826 l 394 826 l 394 1036 l 100 1036 l 100 826 l 47 826 l 47 636 l 100 636 l 100 522 l 32 522 z "},"Ũ":{"ha":757,"x_min":0,"x_max":0,"o":"m 36 1110 l 36 258 b 378 -11 36 74 156 -11 b 721 258 600 -11 721 74 l 721 1111 l 388 1110 l 388 232 b 378 224 388 226 385 224 b 368 232 371 224 368 226 l 368 1110 z m 189 1138 b 232 1190 189 1176 204 1190 b 471 1139 286 1190 381 1136 b 654 1331 544 1140 654 1163 l 568 1331 l 568 1319 b 533 1281 568 1293 556 1281 b 489 1290 521 1281 507 1285 b 438 1307 472 1294 456 1301 l 433 1308 b 431 1310 432 1308 432 1308 b 296 1336 388 1322 342 1336 b 103 1138 240 1336 103 1310 z "},"ũ":{"ha":682,"x_min":0,"x_max":0,"o":"m 200 -3 b 349 51 278 -3 332 24 l 349 0 l 647 0 l 647 826 l 349 826 l 350 190 l 346 186 l 344 186 b 343 186 344 186 344 186 b 332 200 336 186 333 190 l 332 826 l 38 826 l 36 132 b 200 -3 36 47 110 -3 z m 151 860 b 194 913 151 899 168 913 b 433 861 250 913 342 858 b 618 1053 507 863 618 885 l 532 1053 l 532 1046 b 497 1003 532 1017 519 1003 b 453 1013 485 1003 471 1007 b 401 1029 436 1017 419 1024 l 397 1031 b 394 1032 396 1031 396 1031 b 258 1058 351 1044 304 1058 b 67 874 204 1058 67 1026 l 67 860 z "},"Ū":{"ha":757,"x_min":0,"x_max":0,"o":"m 36 258 b 378 -11 36 74 156 -11 b 721 258 600 -11 721 74 l 721 1111 l 388 1110 l 388 232 b 378 224 388 226 385 224 b 368 232 371 224 368 226 l 368 1110 l 36 1110 z m 149 1321 l 149 1140 l 607 1140 l 607 1321 z "},"ū":{"ha":682,"x_min":0,"x_max":0,"o":"m 200 -3 b 349 51 278 -3 332 24 l 349 0 l 647 0 l 647 826 l 349 826 l 350 190 l 346 186 l 344 186 b 343 186 344 186 344 186 b 332 200 336 186 333 190 l 332 826 l 38 826 l 36 132 b 200 -3 36 47 110 -3 z m 100 1042 l 100 851 l 582 851 l 582 1042 z "},"Ŭ":{"ha":757,"x_min":0,"x_max":0,"o":"m 36 258 b 378 -11 36 74 156 -11 b 721 258 600 -11 721 74 l 721 1111 l 388 1110 l 388 232 b 378 224 388 226 385 224 b 368 232 371 224 368 226 l 368 1110 l 36 1110 z m 378 1139 b 614 1318 506 1139 614 1174 l 424 1318 b 378 1232 424 1247 418 1232 b 333 1318 335 1232 333 1253 l 140 1318 b 378 1139 140 1174 256 1139 z "},"ŭ":{"ha":682,"x_min":0,"x_max":0,"o":"m 200 -3 b 349 51 278 -3 332 24 l 349 0 l 647 0 l 647 826 l 349 826 l 350 190 l 346 186 l 344 186 b 343 186 344 186 344 186 b 332 200 336 186 333 190 l 332 826 l 38 826 l 36 132 b 200 -3 36 47 110 -3 z m 342 856 b 578 1035 463 856 578 890 l 388 1035 b 342 949 383 964 382 949 b 297 1035 297 949 297 969 l 104 1035 b 342 856 104 890 219 856 z "},"Ů":{"ha":757,"x_min":0,"x_max":0,"o":"m 36 1110 l 36 258 b 378 -11 36 74 156 -11 b 721 258 600 -11 721 74 l 721 1111 l 388 1110 l 388 232 b 378 224 388 226 385 224 b 368 232 371 224 368 226 l 368 1110 z m 361 1268 b 378 1283 361 1278 367 1283 b 394 1268 389 1283 394 1278 b 378 1253 394 1258 389 1253 b 361 1268 367 1253 361 1258 z m 378 1132 b 529 1268 463 1132 529 1192 b 378 1406 529 1346 463 1406 b 228 1268 294 1406 228 1346 b 378 1132 228 1192 294 1132 z "},"ů":{"ha":682,"x_min":0,"x_max":0,"o":"m 200 -3 b 349 51 278 -3 332 24 l 349 0 l 647 0 l 647 826 l 349 826 l 350 190 l 346 186 l 344 186 b 343 186 344 186 344 186 b 332 200 336 186 333 190 l 332 826 l 38 826 l 36 132 b 200 -3 36 47 110 -3 z m 324 985 b 342 1000 324 994 329 1000 b 358 985 353 1000 358 994 b 342 969 358 975 353 969 b 324 985 329 969 324 975 z m 192 985 b 342 849 192 908 257 849 b 490 985 425 849 490 908 b 342 1121 490 1061 425 1121 b 192 985 257 1121 192 1061 z "},"Ű":{"ha":757,"x_min":0,"x_max":0,"o":"m 36 1110 l 36 258 b 378 -11 36 74 156 -11 b 721 258 600 -11 721 74 l 721 1111 l 388 1110 l 388 232 b 378 224 388 226 385 224 b 368 232 371 224 368 226 l 368 1110 z m 125 1140 l 350 1140 l 383 1311 l 158 1311 z m 374 1140 l 599 1140 l 632 1311 l 406 1311 z "},"ű":{"ha":682,"x_min":0,"x_max":0,"o":"m 200 -3 b 349 51 278 -3 332 24 l 349 0 l 647 0 l 647 828 l 349 828 l 350 190 l 346 186 l 344 186 b 343 186 344 186 344 186 b 332 200 336 186 333 190 l 332 826 l 38 826 l 36 132 b 200 -3 36 47 110 -3 z m 575 844 l 608 1015 l 382 1015 l 350 844 z m 331 844 l 364 1015 l 138 1015 l 106 844 z "},"Ų":{"ha":757,"x_min":0,"x_max":0,"o":"m 36 1110 l 36 258 b 338 -10 36 85 143 0 b 238 -136 269 -47 238 -99 b 246 -175 238 -144 240 -157 b 322 -229 253 -193 278 -211 b 531 -257 367 -247 436 -257 l 531 -117 b 426 -92 471 -117 431 -104 b 425 -81 425 -86 425 -82 b 522 0 425 -62 449 -35 l 517 0 b 721 258 651 32 721 115 l 721 1111 l 388 1110 l 388 232 b 378 224 388 226 385 224 b 368 232 371 224 368 226 l 368 1110 z "},"ų":{"ha":700,"x_min":0,"x_max":0,"o":"m 200 -3 b 349 51 278 -3 332 24 l 349 0 l 501 0 b 371 -136 415 -28 371 -93 b 407 -203 371 -146 367 -171 b 665 -257 450 -236 531 -257 l 665 -117 b 557 -92 606 -117 563 -104 b 553 -78 554 -85 553 -81 b 647 0 553 -60 571 -35 l 647 826 l 349 826 l 350 190 l 346 186 l 344 186 b 343 186 344 186 344 186 b 332 200 336 186 333 190 l 332 826 l 38 826 l 36 132 b 200 -3 36 47 110 -3 z "},"Ŵ":{"ha":1167,"x_min":0,"x_max":0,"o":"m 563 1140 l 583 1200 l 604 1140 l 807 1140 l 724 1311 l 443 1311 l 360 1140 z m 32 1111 l 225 0 l 538 0 l 583 356 l 632 0 l 942 0 l 1133 1111 l 779 1111 l 742 583 l 686 1111 l 481 1111 l 425 582 l 388 1111 z "},"ŵ":{"ha":1003,"x_min":0,"x_max":0,"o":"m 464 863 l 501 906 l 542 863 l 717 863 l 607 1036 l 396 1036 l 288 863 z m 182 0 l 481 0 l 501 167 l 522 0 l 822 0 l 971 826 l 672 826 l 636 450 l 604 826 l 399 826 l 368 450 l 332 826 l 32 826 z "},"Ŷ":{"ha":876,"x_min":0,"x_max":0,"o":"m 418 1140 l 438 1200 l 458 1140 l 663 1140 l 578 1311 l 299 1311 l 214 1140 z m 269 400 l 269 0 l 603 0 l 603 400 l 843 1111 l 510 1111 l 439 768 l 365 1111 l 32 1111 z "},"ŷ":{"ha":693,"x_min":0,"x_max":0,"o":"m 36 -18 b 344 -243 36 -200 168 -243 b 654 -11 522 -243 654 -197 l 654 828 l 358 828 l 358 214 b 351 208 353 208 351 208 b 350 210 350 208 350 208 b 349 210 350 210 350 210 b 342 224 344 210 342 214 l 339 826 l 44 826 l 43 158 b 208 15 43 74 115 15 b 357 75 286 15 340 47 l 357 -39 b 347 -53 357 -49 354 -53 l 344 -53 l 342 -53 b 332 -39 335 -53 332 -49 l 331 -18 z m 306 863 l 346 906 l 383 863 l 560 863 l 450 1036 l 240 1036 l 131 863 z "},"Ź":{"ha":721,"x_min":0,"x_max":0,"o":"m 304 1311 l 263 1139 l 476 1139 l 533 1311 z m 32 1111 l 32 851 l 338 851 l 36 192 l 36 0 l 688 0 l 688 260 l 382 260 l 686 919 l 686 1111 z "},"ź":{"ha":671,"x_min":0,"x_max":0,"o":"m 469 1036 l 261 1036 l 201 861 l 379 860 z m 32 828 l 32 589 l 308 589 l 36 190 l 36 0 l 639 0 l 639 238 l 363 238 l 638 635 l 638 828 z "},"Ż":{"ha":721,"x_min":0,"x_max":0,"o":"m 32 1111 l 32 851 l 338 851 l 36 192 l 36 0 l 688 0 l 688 260 l 382 260 l 686 919 l 686 1111 z m 368 1142 b 482 1244 431 1142 482 1188 b 368 1347 482 1300 431 1347 b 256 1244 306 1347 256 1300 b 368 1142 256 1188 306 1142 z "},"ż":{"ha":671,"x_min":0,"x_max":0,"o":"m 308 589 l 36 190 l 36 0 l 639 0 l 639 238 l 363 238 l 638 635 l 638 828 l 32 828 l 32 589 z m 224 960 b 336 857 224 903 271 857 b 450 960 399 857 450 903 b 336 1064 450 1017 399 1064 b 224 960 271 1064 224 1017 z "},"Ș":{"ha":771,"x_min":0,"x_max":0,"o":"m 261 -265 l 400 -265 l 490 -31 l 304 -31 z m 382 1125 b 36 868 185 1125 36 1071 l 36 722 b 254 472 36 596 86 525 b 393 399 368 438 393 428 l 393 381 b 393 379 393 379 393 379 l 393 372 b 393 371 393 371 393 371 l 393 360 b 393 358 393 360 393 360 l 393 253 b 385 240 393 247 390 243 b 378 253 381 242 378 246 l 378 399 l 44 399 l 46 243 b 385 -10 47 38 188 -10 b 733 243 582 -10 732 38 l 735 390 b 515 656 736 513 656 613 b 376 721 400 692 376 700 b 376 722 376 721 376 721 l 376 724 l 376 726 l 376 732 b 376 733 376 733 376 733 l 376 735 l 376 736 l 376 738 b 376 739 376 738 376 738 l 376 743 l 376 744 l 376 747 l 376 858 b 385 871 376 865 379 869 b 396 858 392 869 396 865 l 396 711 l 728 711 l 728 868 b 382 1125 728 1075 581 1125 z "},"ș":{"ha":690,"x_min":0,"x_max":0,"o":"m 397 -244 l 488 -26 l 276 -26 l 233 -244 z m 51 568 b 372 289 61 307 372 332 l 372 186 b 360 175 372 179 368 175 b 346 186 350 175 346 179 l 346 296 l 51 296 l 51 213 b 360 -12 51 29 179 -12 b 668 206 539 -12 668 31 l 668 214 l 667 285 b 346 542 663 506 346 479 l 346 631 b 360 642 346 638 350 642 b 372 631 368 642 372 638 l 372 535 l 668 535 l 667 604 b 360 833 663 786 539 833 b 50 604 181 833 43 789 z "},"Ț":{"ha":718,"x_min":0,"x_max":0,"o":"m 235 -244 l 399 -244 l 488 -26 l 276 -26 z m 193 851 l 193 0 l 526 0 l 526 851 l 686 851 l 686 1111 l 32 1111 l 32 851 z "},"ț":{"ha":524,"x_min":0,"x_max":0,"o":"m 299 -244 l 388 -26 l 178 -26 l 133 -244 z m 32 636 l 83 636 l 83 222 b 363 -4 83 50 196 -4 b 490 1 403 -4 444 0 l 489 190 b 456 189 476 189 465 189 b 378 267 406 189 378 204 b 379 353 378 271 379 290 l 379 636 l 471 636 l 471 826 l 379 826 l 379 1036 l 83 1036 l 83 826 l 32 826 z "},"ȷ":{"ha":376,"x_min":0,"x_max":0,"o":"m 24 -243 b 338 -11 201 -243 338 -196 l 338 826 l 40 826 l 40 -39 b 26 -53 40 -50 31 -53 l 24 -53 l 4 -53 l 4 -243 z "},"Δ":{"ha":1444,"x_min":0,"x_max":0,"o":""},"Ω":{"ha":1444,"x_min":0,"x_max":0,"o":""},"μ":{"ha":1444,"x_min":0,"x_max":0,"o":""},"π":{"ha":1444,"x_min":0,"x_max":0,"o":""},"Ẁ":{"ha":1444,"x_min":0,"x_max":0,"o":""},"ẁ":{"ha":1444,"x_min":0,"x_max":0,"o":""},"Ẃ":{"ha":1444,"x_min":0,"x_max":0,"o":""},"ẃ":{"ha":1444,"x_min":0,"x_max":0,"o":""},"Ẅ":{"ha":1444,"x_min":0,"x_max":0,"o":""},"ẅ":{"ha":1444,"x_min":0,"x_max":0,"o":""},"₣":{"ha":1444,"x_min":0,"x_max":0,"o":""},"₤":{"ha":1444,"x_min":0,"x_max":0,"o":""},"ℓ":{"ha":1444,"x_min":0,"x_max":0,"o":""},"∕":{"ha":1444,"x_min":0,"x_max":0,"o":""},"√":{"ha":1444,"x_min":0,"x_max":0,"o":""},"∫":{"ha":1444,"x_min":0,"x_max":0,"o":""},"≈":{"ha":1444,"x_min":0,"x_max":0,"o":""},"≠":{"ha":1444,"x_min":0,"x_max":0,"o":""},"≤":{"ha":1444,"x_min":0,"x_max":0,"o":""},"≥":{"ha":1444,"x_min":0,"x_max":0,"o":""},"":{"ha":1444,"x_min":0,"x_max":0,"o":""},"":{"ha":1444,"x_min":0,"x_max":0,"o":""},"":{"ha":1444,"x_min":0,"x_max":0,"o":""},"":{"ha":1444,"x_min":0,"x_max":0,"o":""},"":{"ha":1444,"x_min":0,"x_max":0,"o":""},"":{"ha":1444,"x_min":0,"x_max":0,"o":""},"":{"ha":1444,"x_min":0,"x_max":0,"o":""},"":{"ha":343,"x_min":0,"x_max":0,"o":"m 76 1311 l 36 1139 l 250 1139 l 307 1311 z "},"":{"ha":547,"x_min":0,"x_max":0,"o":"m 272 1139 b 510 1318 394 1139 510 1174 l 318 1318 b 272 1232 317 1247 313 1232 b 228 1318 228 1232 228 1253 l 36 1318 b 272 1139 36 1174 149 1139 z "},"":{"ha":500,"x_min":0,"x_max":0,"o":"m 146 1140 l 354 1140 l 465 1313 l 289 1313 l 251 1269 l 211 1313 l 36 1313 z "},"":{"ha":500,"x_min":0,"x_max":0,"o":"m 146 863 l 354 863 l 465 1035 l 289 1035 l 251 992 l 211 1035 l 36 1035 z "},"":{"ha":518,"x_min":0,"x_max":0,"o":"m 36 1140 l 239 1140 l 260 1200 l 281 1140 l 483 1140 l 399 1311 l 119 1311 z "},"":{"ha":488,"x_min":0,"x_max":0,"o":"m 254 1139 l 453 1139 l 453 1319 l 254 1319 z m 36 1139 l 235 1139 l 235 1319 l 36 1319 z "},"":{"ha":297,"x_min":0,"x_max":0,"o":"m 36 1258 b 149 1156 36 1201 86 1156 b 261 1258 214 1156 261 1201 b 149 1361 261 1314 214 1361 b 36 1258 86 1361 36 1314 z "},"":{"ha":346,"x_min":0,"x_max":0,"o":"m 36 1322 l 94 1140 l 311 1140 l 265 1322 z "},"":{"ha":576,"x_min":0,"x_max":0,"o":"m 261 1140 l 293 1311 l 68 1311 l 36 1140 z m 285 1140 l 510 1140 l 542 1311 l 317 1311 z "},"":{"ha":529,"x_min":0,"x_max":0,"o":"m 36 1140 l 494 1140 l 494 1321 l 36 1321 z "},"":{"ha":372,"x_min":0,"x_max":0,"o":"m 185 1283 b 201 1268 196 1283 201 1278 b 185 1253 201 1258 196 1253 b 168 1268 174 1253 168 1258 b 185 1283 168 1278 174 1283 z m 185 1132 b 336 1268 272 1132 336 1192 b 185 1406 336 1346 272 1406 b 36 1268 101 1406 36 1346 b 185 1132 36 1192 101 1132 z "},"":{"ha":622,"x_min":0,"x_max":0,"o":"m 121 1138 b 165 1190 121 1176 138 1190 b 404 1139 219 1190 314 1136 b 588 1331 481 1140 588 1163 l 503 1331 b 467 1281 503 1293 489 1281 b 228 1336 417 1281 322 1336 b 36 1138 174 1336 36 1310 z "},"":{"ha":300,"x_min":0,"x_max":0,"o":"m 36 -265 l 174 -265 l 265 -31 l 78 -31 z "}}}
